<svg width="906" height="1080" viewBox="0 0 906 1080" fill="none" xmlns="http://www.w3.org/2000/svg">
<rect width="906" height="1080" fill="#334AC0"/>
<path d="M872.203 686.034V696.767V699.066V700.787C872.203 701.541 872.203 702.282 872.133 703.036C872.133 704.067 872.044 705.098 871.982 706.129C871.92 707.159 871.848 708.19 871.769 709.221C871.689 710.252 871.6 711.283 871.502 712.314C871.404 713.345 871.298 714.293 871.182 715.272C871.049 716.407 870.907 717.541 870.748 718.675C870.623 719.582 870.49 720.489 870.348 721.396C870.179 722.489 869.993 723.582 869.797 724.665V724.83C869.638 725.727 869.469 726.624 869.283 727.521C869.229 727.799 869.176 728.088 869.114 728.355C868.936 729.252 868.741 730.139 868.546 731.037V731.108C868.306 732.139 868.058 733.232 867.799 734.283C867.649 734.892 867.498 735.5 867.338 736.108C867.178 736.716 867.027 737.315 866.859 737.923C866.69 738.531 866.548 739.078 866.379 739.655C865.997 741.026 865.589 742.376 865.163 743.716C864.458 745.944 863.71 748.14 862.916 750.305C862.703 750.883 862.49 751.459 862.268 752.026C861.789 753.284 861.301 754.541 860.785 755.779C860.599 756.223 860.413 756.676 860.217 757.12C859.507 758.797 858.767 760.456 857.997 762.099C857.553 763.037 857.11 763.965 856.648 764.883C850.599 777.053 842.975 788.073 834.043 797.554C833.634 797.997 833.216 798.43 832.8 798.863L832.676 798.986L831.148 800.399C824.51 807.024 817.252 812.76 809.51 817.503C807.397 818.802 805.24 820.028 803.056 821.173C798.726 823.456 794.278 825.422 789.738 827.06C788.663 827.451 787.579 827.823 786.497 828.173L784.268 828.874C783.522 829.101 782.768 829.318 782.022 829.524C781.48 829.679 780.948 829.823 780.406 829.957L779.145 830.276C778.595 830.421 778.035 830.555 777.476 830.679L776.277 830.936L774.927 831.225H774.777L773.16 831.534C772.273 831.699 771.34 831.854 770.426 831.998L769.263 832.174L767.842 832.37L766.155 832.576L763.749 832.812L762.036 832.947L760.26 833.07H760.055L758.351 833.143C757.738 833.143 757.117 833.143 756.495 833.194H754.631H706.934C693.54 833.2 682.685 845.808 682.685 861.359V966.497H277.2V861.432C277.212 849.838 271.09 839.425 261.786 835.215C261.449 835.061 261.103 834.906 260.748 834.771C260.393 834.638 260.197 834.555 259.912 834.462C259.629 834.369 259.575 834.339 259.407 834.297C259.246 834.236 259.083 834.184 258.918 834.142C258.69 834.066 258.459 834.004 258.225 833.957C257.348 833.718 256.459 833.543 255.562 833.431L254.967 833.369C254.657 833.369 254.346 833.308 254.035 833.297H252.942H172.696C171.427 833.297 170.175 833.297 168.914 833.235C159.268 832.886 149.691 831.208 140.386 828.235C139.623 827.998 138.868 827.74 138.113 827.482C137.039 827.121 135.982 826.74 134.926 826.338C134.038 826.019 133.15 825.679 132.324 825.307C130.992 824.757 129.676 824.187 128.373 823.596L127.973 823.411C127.503 823.204 127.041 822.988 126.58 822.761C126.118 822.533 125.47 822.245 124.928 821.966L124.129 821.575C123.419 821.225 122.718 820.853 122.016 820.471C121.129 819.987 120.16 819.44 119.246 818.967C118.332 818.493 117.55 817.997 116.706 817.482C116.209 817.183 115.713 816.884 115.224 816.575L114.061 815.843L112.942 815.142C112.125 814.605 111.317 814.111 110.509 813.512C109.701 812.915 108.902 812.399 108.112 811.822L108.005 811.75L105.919 810.193L105.199 809.646L103.424 808.256C102.652 807.636 101.888 807.018 101.133 806.379H101.08C100.467 805.863 99.8638 805.348 99.3039 804.811C97.6885 803.409 96.1076 801.946 94.5628 800.451L94.1008 800.007C93.7637 799.678 93.4267 799.347 93.0978 798.976L91.6328 797.533C89.8038 795.667 88.028 793.719 86.3056 791.718C79.3504 783.644 73.2572 774.627 68.1573 764.862C67.5091 763.615 66.8699 762.357 66.2572 761.088L65.4581 759.429C65.1651 758.811 64.881 758.202 64.5703 757.584C64.2595 756.964 64.1174 756.552 63.9043 756.088C63.2029 754.522 62.537 752.924 61.8977 751.326C61.6403 750.696 61.3916 750.067 61.143 749.429C60.8944 748.789 60.6192 748.057 60.3795 747.367C60.2196 746.975 60.0776 746.573 59.9355 746.171C59.385 744.665 58.8701 743.16 58.3729 741.635L57.9733 740.387C57.5382 739.027 57.0854 737.655 56.7392 736.263C56.5438 735.593 56.3574 734.923 56.1709 734.201C55.9045 733.232 55.6471 732.263 55.4073 731.294C55.3541 731.088 55.3008 730.892 55.2564 730.685C55.0344 729.83 54.8302 728.964 54.6349 728.097C54.5816 727.882 54.5372 727.665 54.4928 727.448C54.3419 726.799 54.1909 726.149 54.0578 725.489C53.9601 725.067 53.8713 724.634 53.7914 724.201C53.5961 723.242 53.4096 722.283 53.232 721.314C53.1788 721.067 53.1344 720.82 53.09 720.572C51.3558 710.96 50.4839 701.165 50.4885 691.344C50.4885 690.623 50.4885 689.901 50.4885 689.169C50.4885 688.646 50.4885 688.12 50.4885 687.591V686.427C50.4885 685.984 50.4885 685.54 50.5329 685.097C50.5329 684.21 50.6039 683.334 50.6572 682.457C50.7104 681.581 50.7371 680.922 50.7904 680.168C50.7866 680.141 50.7866 680.114 50.7904 680.086C50.7904 679.601 50.8525 679.055 50.8969 678.622C51.039 676.684 51.2165 674.76 51.4296 672.848C51.5362 671.89 51.6516 670.941 51.7848 669.993C52.1222 667.333 52.5395 664.694 53.0101 662.085C53.2143 660.9 53.4451 659.725 53.6848 658.55C54.3182 655.457 55.0374 652.398 55.8424 649.374C56.2982 647.682 56.7777 646.003 57.2808 644.332C57.6537 643.085 58.0532 641.848 58.4528 640.611C61.3963 631.683 65.1149 623.127 69.5513 615.074C77.1534 601.265 86.7465 589.08 97.9105 579.052C100.526 576.695 103.238 574.461 106.043 572.351C116.584 564.377 128.128 558.353 140.262 554.494C143.76 553.381 147.312 552.45 150.917 551.701C153.598 551.137 156.309 550.68 159.049 550.329C163.534 549.757 168.042 549.472 172.554 549.474H266.856C284.075 549.48 298.159 533.544 298.598 513.556C298.598 513.245 298.598 512.927 298.598 512.607C298.598 512.463 298.598 512.319 298.598 512.184C298.426 494.314 287.235 479.164 272.05 476.244C270.333 475.913 268.596 475.747 266.856 475.75H108.032H106.168C87.1288 475.235 68.9975 466.2 55.5583 450.533C54.7325 449.574 53.9246 448.595 53.1432 447.594C27.3472 414.719 27.3472 364.445 53.1432 331.57C53.9246 330.539 54.7325 329.59 55.5583 328.632C68.9975 312.965 87.1288 303.93 106.168 303.415C106.759 303.415 107.381 303.415 108.032 303.415C119.462 303.432 130.67 299.736 140.386 292.744C144.232 289.968 147.805 286.711 151.041 283.032C162.875 269.6 169.546 251.195 169.544 231.98V159.194C169.544 143.638 180.405 131.028 193.802 131.028H759.026C794.139 131.024 824.453 159.586 831.679 199.485C838.906 239.385 821.07 279.706 788.929 296.125C786.281 297.485 783.566 298.659 780.796 299.641C773.742 302.151 766.403 303.423 759.026 303.415H698.65C691.425 303.409 684.314 305.511 677.971 309.529C676.853 310.24 675.76 311.013 674.704 311.838C662.704 321.126 655.497 336.764 655.499 353.509C655.494 366.799 660.039 379.545 668.132 388.941C676.227 398.336 687.205 403.611 698.65 403.604C699.44 403.604 700.221 403.604 701.003 403.665C710.456 404.099 719.657 407.336 727.728 413.068C728.687 413.738 729.619 414.438 730.533 415.181C732.394 416.678 734.173 418.307 735.86 420.057C747.799 432.371 754.622 450.033 754.604 468.574V512.906C754.588 532.185 765.084 549.362 780.761 555.711C781.285 555.928 781.817 556.124 782.35 556.309C784.464 557.041 786.647 557.845 788.894 558.753C793.413 560.536 798.163 562.67 803.02 565.196C814.072 570.854 824.419 578.208 833.785 587.062C836.619 589.769 839.333 592.638 841.918 595.661C846.999 601.575 851.529 608.097 855.432 615.115C860.468 624.192 864.391 634.04 867.089 644.374C867.528 646.024 867.936 647.704 868.315 649.415C868.981 652.384 869.575 655.446 870.091 658.591C870.233 659.498 870.374 660.416 870.499 661.344C870.623 662.271 870.757 663.189 870.872 664.127C870.988 665.065 871.094 666.014 871.191 666.963C871.268 667.65 871.339 668.382 871.404 669.158C871.404 669.385 871.449 669.622 871.467 669.848C871.547 670.705 871.617 671.57 871.68 672.436C871.68 672.869 871.742 673.312 871.769 673.756C871.831 674.704 871.893 675.664 871.937 676.632C871.981 677.601 872.035 678.488 872.061 679.427C872.088 680.364 872.124 681.612 872.142 682.726V683.757C872.194 684.498 872.203 685.261 872.203 686.034Z" fill="#FFFAF4"/>
<path d="M776.05 604.177H731.496C730.145 604.177 729.05 605.449 729.05 607.018V625.482C729.05 627.051 730.145 628.322 731.496 628.322H776.05C777.401 628.322 778.496 627.051 778.496 625.482V607.018C778.496 605.449 777.401 604.177 776.05 604.177Z" fill="#F2E1D3"/>
<path d="M742.143 637.529H697.589C696.238 637.529 695.143 638.8 695.143 640.369V658.833C695.143 660.402 696.238 661.674 697.589 661.674H742.143C743.494 661.674 744.589 660.402 744.589 658.833V640.369C744.589 638.8 743.494 637.529 742.143 637.529Z" fill="#F9EEE4"/>
<path d="M808.503 637.529H763.949C762.598 637.529 761.503 638.8 761.503 640.369V658.833C761.503 660.402 762.598 661.674 763.949 661.674H808.503C809.854 661.674 810.949 660.402 810.949 658.833V640.369C810.949 638.8 809.854 637.529 808.503 637.529Z" fill="#F9E7D9"/>
<path d="M612.432 251.568H656.986C658.337 251.568 659.432 250.296 659.432 248.727V230.263C659.432 228.694 658.337 227.423 656.986 227.423H612.432C611.081 227.423 609.986 228.694 609.986 230.263V248.727C609.986 250.296 611.081 251.568 612.432 251.568Z" fill="#F2E1D3"/>
<path d="M646.34 218.216H690.894C692.245 218.216 693.34 216.945 693.34 215.376V196.912C693.34 195.343 692.245 194.071 690.894 194.071H646.34C644.989 194.071 643.894 195.343 643.894 196.912V215.376C643.894 216.945 644.989 218.216 646.34 218.216Z" fill="#F9EEE4"/>
<path d="M579.963 218.216H624.517C625.868 218.216 626.963 216.945 626.963 215.376V196.912C626.963 195.343 625.868 194.071 624.517 194.071H579.963C578.612 194.071 577.517 195.343 577.517 196.912V215.376C577.517 216.945 578.612 218.216 579.963 218.216Z" fill="#F9E7D9"/>
<path d="M162.836 740.604H118.282C116.931 740.604 115.836 741.875 115.836 743.444V761.908C115.836 763.477 116.931 764.749 118.282 764.749H162.836C164.187 764.749 165.282 763.477 165.282 761.908V743.444C165.282 741.875 164.187 740.604 162.836 740.604Z" fill="#F9EEE4"/>
<path d="M290.984 740.604H246.43C245.079 740.604 243.984 741.875 243.984 743.444V761.908C243.984 763.477 245.079 764.749 246.43 764.749H290.984C292.335 764.749 293.43 763.477 293.43 761.908V743.444C293.43 741.875 292.335 740.604 290.984 740.604Z" fill="#F9E7D9"/>
<path d="M196.256 774.543H151.702C150.351 774.543 149.256 775.815 149.256 777.384V795.848C149.256 797.417 150.351 798.689 151.702 798.689H196.256C197.607 798.689 198.702 797.417 198.702 795.848V777.384C198.702 775.815 197.607 774.543 196.256 774.543Z" fill="#F9E7D9"/>
<path d="M377.082 589.918H526.638C534.824 589.918 541.46 582.213 541.46 572.708V156.868C541.46 147.363 534.824 139.657 526.638 139.657H377.082C368.896 139.657 362.26 147.363 362.26 156.868L362.26 572.708C362.26 582.213 368.896 589.918 377.082 589.918Z" fill="#E5CDBA"/>
<path d="M394.714 566.041H509.013C517.199 566.041 523.836 558.335 523.836 548.83V180.744C523.836 171.239 517.199 163.533 509.013 163.533H394.714C386.528 163.533 379.892 171.239 379.892 180.744V548.83C379.892 558.335 386.528 566.041 394.714 566.041Z" fill="#FFFAF4"/>
<path d="M379.892 222.825V549.176C379.889 553.646 381.417 557.935 384.138 561.097C386.858 564.26 390.549 566.039 394.4 566.041H480.524V401.706C480.524 398.29 478.139 395.52 475.197 395.52H447.495C444.552 395.52 442.168 392.752 442.168 389.335V229.02C442.168 225.605 439.782 222.835 436.841 222.835L379.892 222.825Z" fill="#F9EEE4"/>
<path d="M468.156 425.346H461.48V417.593H468.156V425.346Z" fill="#FFFAF4"/>
<path d="M468.156 460.028H461.48V452.275H468.156V460.028Z" fill="#FFFAF4"/>
<path d="M468.156 494.709H461.48V486.957H468.156V494.709Z" fill="#FFFAF4"/>
<path d="M468.156 529.391H461.48V521.639H468.156V529.391Z" fill="#FFFAF4"/>
<path d="M468.156 564.062H461.48V556.309H468.156V564.062Z" fill="#FFFAF4"/>
<path d="M445.454 459.265H438.777V451.512H445.454V459.265Z" fill="#FFFAF4"/>
<path d="M430.181 242.835H423.505V235.083H430.181V242.835Z" fill="#FFFAF4"/>
<path d="M430.181 291.363H423.505V283.61H430.181V291.363Z" fill="#FFFAF4"/>
<path d="M430.181 339.89H423.505V332.137H430.181V339.89Z" fill="#FFFAF4"/>
<path d="M430.181 388.407H423.505V380.655H430.181V388.407Z" fill="#FFFAF4"/>
<path d="M430.181 436.924H423.505V429.172H430.181V436.924Z" fill="#FFFAF4"/>
<path d="M430.181 485.441H423.505V477.688H430.181V485.441Z" fill="#FFFAF4"/>
<path d="M430.181 533.968H423.505V526.216H430.181V533.968Z" fill="#FFFAF4"/>
<path d="M414.795 269.063H408.118V261.311H414.795V269.063Z" fill="#FFFAF4"/>
<path d="M414.795 317.591H408.118V309.838H414.795V317.591Z" fill="#FFFAF4"/>
<path d="M414.795 366.108H408.118V358.354H414.795V366.108Z" fill="#FFFAF4"/>
<path d="M414.795 414.634H408.118V406.882H414.795V414.634Z" fill="#FFFAF4"/>
<path d="M414.795 463.142H408.118V455.389H414.795V463.142Z" fill="#FFFAF4"/>
<path d="M414.795 511.669H408.118V503.917H414.795V511.669Z" fill="#FFFAF4"/>
<path d="M414.795 560.196H408.118V552.443H414.795V560.196Z" fill="#FFFAF4"/>
<path d="M395.874 242.392H389.198V234.639H395.874V242.392Z" fill="#FFFAF4"/>
<path d="M395.874 290.92H389.198V283.167H395.874V290.92Z" fill="#FFFAF4"/>
<path d="M395.874 339.436H389.198V331.684H395.874V339.436Z" fill="#FFFAF4"/>
<path d="M395.874 387.953H389.198V380.201H395.874V387.953Z" fill="#FFFAF4"/>
<path d="M395.874 436.47H389.198V428.717H395.874V436.47Z" fill="#FFFAF4"/>
<path d="M395.874 484.997H389.198V477.245H395.874V484.997Z" fill="#FFFAF4"/>
<path d="M395.874 533.525H389.198V525.773H395.874V533.525Z" fill="#FFFAF4"/>
<path d="M451.864 511.081H445.187V503.328H451.864V511.081Z" fill="#FFFAF4"/>
<path d="M415.78 575.011H411.455V154.555H415.78V575.011Z" fill="#E5CDBA"/>
<path d="M495.858 575.011H491.534V154.555H495.858V575.011Z" fill="#E5CDBA"/>
<path d="M540.741 188.473V193.494H365.083V188.473H540.741Z" fill="#E5CDBA"/>
<path d="M540.741 362.283V367.304H365.083V362.283H540.741Z" fill="#E5CDBA"/>
<path d="M534.765 327.055H368.962V304.312H534.765V327.055Z" fill="#E5CDBA"/>
<path d="M82.4388 984.653H132.56C136.877 984.653 140.377 980.589 140.377 975.576C140.377 970.562 136.877 966.498 132.56 966.498H82.4388C78.1212 966.498 74.6211 970.562 74.6211 975.576C74.6211 980.589 78.1212 984.653 82.4388 984.653Z" fill="#A66633"/>
<path d="M154.562 984.653L858.056 984.653C862.373 984.653 865.873 980.589 865.873 975.576C865.873 970.562 862.373 966.498 858.056 966.498L154.562 966.498C150.244 966.498 146.744 970.562 146.744 975.576C146.744 980.589 150.244 984.653 154.562 984.653Z" fill="#A66633"/>
<path d="M521.97 882.052L451.828 730.191C444.407 714.18 427.229 708.158 413.418 716.727C399.628 725.343 394.442 745.29 401.823 761.326L471.965 913.187L521.97 882.052Z" fill="#000B42"/>
<path d="M473.641 905.202L510.169 882.459L519.772 903.258L483.246 925.999L473.641 905.202Z" fill="#000B42"/>
<path d="M428.397 781.295H503.866C525.443 781.295 542.933 760.986 542.933 735.933V724.86C542.933 721.388 541.745 718.058 539.631 715.603C537.516 713.147 534.648 711.767 531.657 711.767H428.397C411.862 711.767 398.458 727.331 398.458 746.532C398.458 765.731 411.862 781.295 428.397 781.295Z" fill="#000B42"/>
<path d="M506.273 917.145L472.089 943.063C466.315 932.123 469.082 917.834 478.335 910.818C487.588 903.803 499.969 906.606 506.273 917.145Z" fill="#000B42"/>
<path d="M471.016 950.466L467.819 944.218C466.442 941.51 467.115 938.026 469.355 936.26L513.749 901.207C515.211 900.049 517.021 899.646 518.749 900.093C520.476 900.54 521.967 901.798 522.868 903.568L528.772 915.135L471.016 950.466Z" fill="#000B42"/>
<path d="M527.023 911.67L531.152 919.743L477.559 956.62C474.19 958.922 469.854 957.632 467.854 953.734C465.871 949.825 466.978 944.792 470.332 942.466L484.298 932.857C487.187 930.878 490.911 931.985 492.626 935.331L527.023 911.67Z" fill="#000B42"/>
<path d="M437.988 661.342C426.763 659.82 418.727 648.02 420.037 634.988C421.348 621.955 431.51 612.624 442.733 614.145L514.255 623.842C525.479 625.363 533.515 637.163 532.204 650.196C530.894 663.228 520.732 672.56 509.508 671.038L437.988 661.342Z" fill="#D85E66"/>
<path d="M434.971 664.78C449.378 663.442 460.301 651.381 459.368 637.841C458.435 624.301 446 614.409 431.593 615.748C417.186 617.086 406.263 629.147 407.196 642.687C408.129 656.227 420.564 666.119 434.971 664.78Z" fill="#D85E66"/>
<path d="M447.673 614.455C450.603 616.065 451.855 620.126 450.47 623.528C449.805 625.162 448.607 626.421 447.142 627.029C445.676 627.636 444.062 627.541 442.656 626.765L426.124 617.693C423.194 616.084 421.942 612.022 423.328 608.62C424.713 605.219 428.211 603.765 431.141 605.373" fill="#D85E66"/>
<path d="M683.065 553.201L659.539 751.332C655.283 787.178 626.807 812.229 595.937 807.288L567.984 802.813L587.657 637.127C590.723 611.309 602.496 587.962 620.387 572.222C638.278 556.482 660.82 549.64 683.056 553.2L683.065 553.201Z" fill="#A45B0D"/>
<path d="M181.832 672.385H490.992C491.899 672.385 492.635 673.239 492.635 674.292V684.52C492.635 685.534 492.288 686.507 491.67 687.224C491.052 687.942 490.214 688.345 489.341 688.345H183.475C182.602 688.345 181.764 687.942 181.146 687.224C180.528 686.507 180.181 685.534 180.181 684.52V674.292C180.181 673.785 180.355 673.298 180.665 672.94C180.975 672.583 181.395 672.383 181.832 672.385Z" fill="#A45B0D"/>
<path d="M492.635 677.797V684.52C492.637 685.535 492.291 686.509 491.673 687.227C491.054 687.945 490.215 688.347 489.341 688.345H183.475C181.659 688.338 180.19 686.628 180.19 684.52V677.797C180.19 679.907 181.659 681.617 183.475 681.622H489.341C490.215 681.626 491.054 681.224 491.673 680.505C492.291 679.788 492.637 678.814 492.635 677.797Z" fill="#914D08"/>
<path d="M251.451 688.345H421.401V698.562C421.401 700.674 419.926 702.386 418.106 702.386H254.736C252.917 702.386 251.442 700.674 251.442 698.562V688.345H251.451Z" fill="#E3892C"/>
<path d="M421.401 693.293V698.571C421.395 700.679 419.922 702.385 418.106 702.385H254.736C252.921 702.385 251.448 700.679 251.442 698.571V693.293C251.442 695.405 252.917 697.118 254.736 697.118H418.106C418.98 697.118 419.818 696.714 420.436 695.998C421.054 695.28 421.401 694.307 421.401 693.293Z" fill="#A45B0D"/>
<path d="M331.716 702.386H341.109V966.487H331.716V702.386Z" fill="#E3892C"/>
<path d="M331.716 702.386H341.109V727.057H331.716V702.386Z" fill="#A45B0D"/>
<path d="M318.628 702.386H354.205V711.954C354.205 714.066 352.73 715.778 350.911 715.778H321.914C320.094 715.778 318.619 714.066 318.619 711.954V702.386H318.628Z" fill="#E3892C"/>
<path d="M354.205 707.417V711.964C354.201 714.073 352.728 715.783 350.911 715.788H321.914C320.097 715.783 318.628 714.072 318.628 711.964V707.417C318.628 709.526 320.097 711.236 321.914 711.243H350.894C351.77 711.245 352.611 710.844 353.231 710.126C353.853 709.409 354.203 708.435 354.205 707.417Z" fill="#A45B0D"/>
<path d="M495.636 496.287C505.591 496.287 513.66 486.917 513.66 475.359C513.66 463.8 505.591 454.43 495.636 454.43C485.682 454.43 477.612 463.8 477.612 475.359C477.612 486.917 485.682 496.287 495.636 496.287Z" fill="#B35006"/>
<path d="M496.897 496.266C496.479 496.266 496.062 496.318 495.635 496.318C489.102 496.486 483.002 492.535 479.693 485.993C476.385 479.449 476.385 471.339 479.693 464.797C483.002 458.253 489.102 454.303 495.635 454.471C496.062 454.471 496.523 454.471 496.897 454.523C487.433 455.255 480.08 464.382 480.08 475.395C480.08 486.407 487.433 495.533 496.897 496.266Z" fill="#001066"/>
<path d="M516.173 475.359C516.168 486.908 508.104 496.266 498.158 496.266C497.731 496.266 497.27 496.266 496.897 496.215C487.434 495.482 480.081 486.355 480.081 475.343C480.081 464.331 487.434 455.205 496.897 454.471C497.314 454.471 497.731 454.42 498.158 454.42C502.938 454.422 507.521 456.63 510.9 460.557C514.278 464.483 516.175 469.807 516.173 475.359Z" fill="#000D44"/>
<path d="M566.56 548.444L521.172 566.578L510.322 529.958L504.595 510.638L549.984 492.503L554.245 506.885L566.56 548.444Z" fill="#F0A284"/>
<path d="M511.64 542.123C510.883 539.569 512.053 536.785 514.253 535.906L555.76 519.32C557.961 518.44 560.358 519.8 561.115 522.354L567.238 543.011C567.994 545.565 566.824 548.349 564.625 549.228L523.117 565.814C520.916 566.694 518.519 565.335 517.763 562.781L511.64 542.123Z" fill="white"/>
<path d="M514.985 618.317L606.037 618.447L605.913 736.378L514.861 736.249L514.985 618.317Z" fill="white"/>
<path d="M606.95 606.771C606.991 567.461 580.256 535.556 547.235 535.509C514.214 535.462 487.411 567.291 487.37 606.601C487.329 645.912 514.064 677.817 547.085 677.864C580.106 677.91 606.908 646.081 606.95 606.771Z" fill="white"/>
<path d="M550.214 677.715C549.175 677.777 548.118 677.808 547.071 677.808C514.051 677.808 487.317 645.848 487.352 606.538C487.387 567.227 514.192 535.402 547.213 535.402C548.216 535.402 549.219 535.402 550.205 535.494C518.65 537.402 493.541 568.485 493.504 606.497C493.469 644.508 518.587 675.849 550.214 677.715Z" fill="#F3F9FF"/>
<path d="M610.882 724.861V735.923C610.889 759.901 594.823 779.742 574.213 781.213H573.787C573.13 781.213 572.473 781.265 571.807 781.265H496.338C479.802 781.265 466.398 765.7 466.398 746.501C466.398 727.301 479.802 711.737 496.338 711.737H599.598C602.594 711.737 605.467 713.12 607.584 715.582C609.701 718.044 610.888 721.382 610.882 724.861Z" fill="#313D8B"/>
<path d="M516.039 765.521L515.152 766.801L504.808 781.296L451.961 855.391L399.203 929.341L355.493 887.309L378.276 855.35L452.467 751.377L472.356 723.541C477.742 715.974 485.76 711.599 494.215 711.613C495.25 711.612 496.285 711.677 497.313 711.808C507.667 713.151 516.554 720.973 520.463 732.186C524.372 743.398 522.673 756.195 516.039 765.521Z" fill="#313D8B"/>
<path d="M610.883 734.253V735.923C610.889 759.901 594.824 779.742 574.214 781.213H573.788C573.131 781.213 572.473 781.265 571.807 781.265H496.338C488.579 781.28 481.118 777.791 475.535 771.533L493.763 745.986C499.15 738.418 507.168 734.042 515.623 734.057C516.658 734.055 517.693 734.12 518.721 734.253H610.883Z" fill="#2A397F"/>
<path d="M516.039 765.523L515.152 766.801L504.808 781.296L496.293 793.245L451.962 855.391L399.204 929.342L377.717 908.723L399.727 877.866L473.919 773.863L475.579 771.533L493.807 745.986C499.194 738.418 507.212 734.042 515.667 734.057C516.703 734.055 517.736 734.12 518.766 734.253H521.207C521.252 734.408 521.296 734.562 521.331 734.717C524.18 745.363 522.188 756.959 516.039 765.523Z" fill="#2A397F"/>
<path d="M610.883 734.253V735.924C610.889 759.901 594.824 779.743 574.214 781.213H573.787C573.13 781.213 572.473 781.265 571.807 781.265H504.79L496.275 793.213C493.212 789.557 490.881 785.16 489.447 780.337C489.163 779.409 488.924 778.461 488.711 777.491C486.449 767.093 488.445 756.064 494.121 747.603C499.797 739.141 508.516 734.192 517.753 734.191L610.883 734.253Z" fill="#2A397F"/>
<path d="M541.175 781.296H504.772L496.258 793.245L451.926 855.391L399.168 929.342L377.682 908.723L399.728 877.866L473.919 773.863L475.579 771.533L493.807 745.986C499.194 738.418 507.212 734.042 515.667 734.057C516.703 734.055 517.736 734.12 518.766 734.253C519.627 734.357 520.484 734.512 521.331 734.717C529.897 736.765 537.173 743.278 541.057 752.376C544.942 761.472 545.001 772.141 541.22 781.296H541.175Z" fill="#2A397F"/>
<path d="M393.484 923.768L376.706 947.283L344.461 916.265L361.239 892.75L393.484 923.768Z" fill="#F0A284"/>
<path d="M393.473 923.762L387.962 931.487L355.717 900.469L361.229 892.744L393.473 923.762Z" fill="#D85E66"/>
<path d="M566.693 619.332C583.88 619.332 597.813 603.154 597.813 583.197C597.813 563.24 583.88 547.062 566.693 547.062C549.506 547.062 535.573 563.24 535.573 583.197C535.573 603.154 549.506 619.332 566.693 619.332Z" fill="#313D8B"/>
<path d="M545.652 572.836C551.605 559.572 565.693 554.424 577.117 561.338C588.539 568.252 592.973 584.608 587.019 597.873L554.409 670.517C548.455 683.78 534.368 688.929 522.945 682.015C511.521 675.101 507.088 658.745 513.042 645.48L545.652 572.836Z" fill="#F3F9FF"/>
<path d="M351.569 672.385H341.323L309.838 557.855H315.717C318.321 557.852 320.627 559.809 321.417 562.69L351.569 672.385Z" fill="#F3F9FF"/>
<path d="M350.086 658.694H355.174C355.995 658.694 356.784 659.073 357.364 659.748C357.946 660.422 358.272 661.338 358.272 662.292V665.24H346.987V662.251C347.007 660.279 348.389 658.694 350.086 658.694Z" fill="#F3F9FF"/>
<path d="M361.38 658.694H366.468C368.155 658.711 369.52 660.292 369.54 662.251V665.199H358.281V662.251C358.301 660.279 359.683 658.694 361.38 658.694Z" fill="#F3F9FF"/>
<path d="M372.664 658.694H377.752C379.464 658.694 380.851 660.305 380.851 662.292V665.241H369.539V662.251C369.558 660.268 370.956 658.677 372.664 658.694Z" fill="#F3F9FF"/>
<path d="M383.949 658.694H389.073C390.784 658.694 392.171 660.304 392.171 662.292V665.24H380.851V662.251C380.871 660.279 382.252 658.694 383.949 658.694Z" fill="#F3F9FF"/>
<path d="M395.234 658.694H400.322C402.034 658.694 403.421 660.304 403.421 662.292V665.24H392.136V662.251C392.156 660.279 393.537 658.694 395.234 658.694Z" fill="#F3F9FF"/>
<path d="M406.52 658.694H411.608C413.319 658.694 414.706 660.304 414.706 662.292V665.24H403.421V662.251C403.441 660.279 404.823 658.694 406.52 658.694Z" fill="#F3F9FF"/>
<path d="M417.813 658.694H422.901C424.612 658.694 425.999 660.304 425.999 662.292V665.24H414.714V662.251C414.734 660.279 416.116 658.694 417.813 658.694Z" fill="#F3F9FF"/>
<path d="M429.098 658.694H434.186C435.884 658.694 437.265 660.279 437.285 662.251V665.199H425.999V662.251C426.019 660.279 427.401 658.694 429.098 658.694Z" fill="#F3F9FF"/>
<path d="M348.372 672.385H338.126L307.166 557.948C306.695 556.224 306.962 554.343 307.883 552.884C308.804 551.426 310.269 550.565 311.827 550.567C313.963 550.566 315.852 552.179 316.488 554.546L348.372 672.385Z" fill="#2E2418"/>
<path d="M338.801 661.271H443.482C446.124 661.271 448.267 663.759 448.267 666.828C448.267 669.897 446.124 672.385 443.482 672.385H338.801" fill="#2E2418"/>
<path d="M533.601 687.313C548.175 687.313 559.989 673.595 559.989 656.673C559.989 639.751 548.175 626.033 533.601 626.033C519.028 626.033 507.214 639.751 507.214 656.673C507.214 673.595 519.028 687.313 533.601 687.313Z" fill="#313D8B"/>
<path d="M538.318 637.682C549.397 640.265 556.577 652.787 554.352 665.652C552.128 678.517 541.344 686.853 530.265 684.27L459.665 667.816C448.586 665.233 441.408 652.711 443.631 639.846C445.855 626.982 456.639 618.645 467.719 621.228L538.318 637.682Z" fill="#F0A284"/>
<path d="M456.143 667.952C470.55 667.952 482.229 656.976 482.229 643.436C482.229 629.896 470.55 618.919 456.143 618.919C441.736 618.919 430.057 629.896 430.057 643.436C430.057 656.976 441.736 667.952 456.143 667.952Z" fill="#F0A284"/>
<path d="M450.565 647.291C453.805 647.393 456.36 650.526 456.272 654.288C456.185 658.05 453.487 661.018 450.247 660.916L431.972 660.342C428.732 660.24 426.176 657.107 426.264 653.345C426.352 649.584 429.05 646.616 432.29 646.718L450.565 647.291Z" fill="#F0A284"/>
<path d="M440.74 634.257C443.98 634.358 446.536 637.491 446.448 641.253C446.36 645.016 443.663 647.983 440.422 647.881L422.148 647.307C418.907 647.205 416.352 644.072 416.439 640.31C416.527 636.548 419.225 633.581 422.465 633.683L440.74 634.257Z" fill="#F0A284"/>
<path d="M450.574 620.932C453.814 621.033 456.369 624.166 456.282 627.928C456.195 631.691 453.496 634.658 450.257 634.556L431.982 633.983C428.742 633.881 426.186 630.748 426.274 626.986C426.362 623.224 429.059 620.256 432.3 620.358L450.574 620.932Z" fill="#F0A284"/>
<path d="M472.594 621.98C475.402 623.862 476.363 628.029 474.742 631.289C473.122 634.548 469.533 635.665 466.726 633.784L450.894 623.17C448.086 621.288 447.125 617.12 448.745 613.861C450.365 610.601 453.955 609.485 456.763 611.367L472.594 621.98Z" fill="#F0A284"/>
<path d="M517.637 656.851C521.61 657.777 524.185 662.268 523.387 666.882C522.59 671.496 518.722 674.486 514.748 673.559L486.257 666.919C482.283 665.992 479.708 661.501 480.505 656.887C481.304 652.273 485.171 649.284 489.145 650.21L517.637 656.851Z" fill="#FCB798"/>
<path d="M554.218 506.885C548.991 519.109 538.857 527.5 527.2 529.257L518.49 530.576C515.759 530.992 512.984 530.782 510.322 529.958L504.595 510.638L549.984 492.503L554.218 506.885Z" fill="#D85E66"/>
<path d="M501.489 434.589L529.664 430.334C534.716 429.568 539.823 431.164 543.861 434.773C547.899 438.38 550.537 443.703 551.194 449.57L554.585 479.852C555.793 490.628 553.263 501.518 547.556 510.128C541.847 518.738 533.427 524.363 524.146 525.764L515.43 527.08C503.809 528.835 493.161 519.319 491.65 505.824L486.248 457.59C485.643 452.191 486.91 446.735 489.77 442.421C492.63 438.108 496.849 435.289 501.498 434.587L501.489 434.589Z" fill="#F0A284"/>
<path d="M554.887 862.04H554.677C550.349 862.04 546.84 866.114 546.84 871.14V916.386C546.84 921.411 550.349 925.485 554.677 925.485H554.887C559.215 925.485 562.724 921.411 562.724 916.386V871.14C562.724 866.114 559.215 862.04 554.887 862.04Z" fill="#592702"/>
<path d="M560.393 817.307H549.171C542.911 817.307 537.837 823.199 537.837 830.468V881.221C537.837 888.49 542.911 894.382 549.171 894.382H560.393C566.653 894.382 571.727 888.49 571.727 881.221V830.468C571.727 823.199 566.653 817.307 560.393 817.307Z" fill="#A45B0D"/>
<path d="M571.727 872.165V881.443C571.727 888.562 566.759 894.335 560.628 894.341H548.944C542.81 894.341 537.837 888.566 537.837 881.443V872.165C537.837 875.585 539.007 878.864 541.09 881.281C543.174 883.698 545.999 885.055 548.944 885.052H560.628C566.758 885.052 571.727 879.281 571.727 872.165Z" fill="#914D08"/>
<path d="M583.353 800.853H526.219C519.945 800.853 514.858 806.759 514.858 814.045V820.559C514.858 827.845 519.945 833.751 526.219 833.751H583.353C589.627 833.751 594.714 827.845 594.714 820.559V814.045C594.714 806.759 589.627 800.853 583.353 800.853Z" fill="#592702"/>
<path d="M594.715 813.802V820.823C594.715 827.963 589.73 833.751 583.58 833.751H525.993C523.038 833.754 520.205 832.393 518.117 829.967C516.029 827.542 514.856 824.252 514.858 820.823V813.802C514.856 817.232 516.028 820.523 518.116 822.95C520.204 825.377 523.038 826.74 525.993 826.74H583.58C589.731 826.735 594.715 820.944 594.715 813.802Z" fill="#441D02"/>
<path d="M662.93 586.326L642.181 761.071C640.733 773.226 631.074 781.72 620.605 780.043L614.755 779.107C604.282 777.43 596.963 766.213 598.407 754.053L613.929 623.326C616.817 599.005 636.138 582.007 657.085 585.359L662.934 586.296L662.93 586.326Z" fill="#CC7212"/>
<path d="M619.16 743.985H521.338C509.879 743.985 500.59 754.771 500.59 768.076V771.215C500.59 784.52 509.879 795.306 521.338 795.306H619.16C630.619 795.306 639.908 784.52 639.908 771.215V768.076C639.908 754.771 630.619 743.985 619.16 743.985Z" fill="#CC7212"/>
<path d="M525.31 761.646H635.246C646.476 761.646 655.579 772.215 655.579 785.255V789.379C655.579 802.417 646.476 812.988 635.246 812.988H488.746C486.643 812.988 484.937 811.008 484.937 808.565C484.933 796.126 489.184 784.196 496.754 775.397C504.326 766.598 514.597 761.651 525.31 761.646Z" fill="#E3892C"/>
<path d="M629.191 929.97H570.484C561.814 929.97 554.786 921.81 554.786 911.743V911.526H613.307C622.079 911.526 629.191 919.784 629.191 929.97Z" fill="#A45B0D"/>
<path d="M683.057 553.194L654.845 790.789C653.178 804.828 642.025 814.64 629.935 812.705C617.844 810.769 609.394 797.819 611.061 783.78L633.236 597.025C636.569 568.947 658.875 549.323 683.057 553.194Z" fill="#E3892C"/>
<path d="M554.787 911.516V911.733C554.787 921.799 547.759 929.96 539.089 929.96H480.383C480.383 919.774 487.494 911.516 496.267 911.516H554.787Z" fill="#A45B0D"/>
<path d="M629.192 929.97H570.485C561.817 929.965 554.792 921.808 554.787 911.743V911.526H555.444C557.448 919.226 563.557 924.494 570.485 924.495H628.481C628.953 926.269 629.192 928.114 629.192 929.97Z" fill="#914D08"/>
<path d="M554.787 911.526V911.743C554.782 921.791 547.778 929.942 539.124 929.97H480.383C480.381 928.114 480.62 926.269 481.093 924.495H539.124C546.051 924.496 552.159 919.227 554.157 911.526H554.787Z" fill="#914D08"/>
<path d="M629.191 966.497C640.901 966.497 650.393 955.474 650.393 941.878C650.393 928.281 640.901 917.258 629.191 917.258C617.481 917.258 607.988 928.281 607.988 941.878C607.988 955.474 617.481 966.497 629.191 966.497Z" fill="#592702"/>
<path d="M628.462 959.663C622.549 960.491 616.752 957.293 613.57 951.446C610.388 945.599 610.388 938.147 613.57 932.3C616.752 926.454 622.549 923.256 628.462 924.084C620.711 925.17 614.879 932.807 614.879 941.874C614.879 950.94 620.711 958.577 628.462 959.663Z" fill="#A45B0D"/>
<path d="M630.105 962.847C630.693 962.95 631.286 963.001 631.881 963.002C640.396 963.002 647.303 953.538 647.303 941.878C647.303 930.218 640.396 920.743 631.881 920.743C631.287 920.746 630.694 920.795 630.105 920.887C637.768 922.124 643.708 931.053 643.708 941.878C643.708 952.703 637.768 961.621 630.105 962.847Z" fill="#441D02"/>
<path d="M629.191 953.785C634.854 953.785 639.446 948.454 639.446 941.877C639.446 935.301 634.854 929.97 629.191 929.97C623.527 929.97 618.936 935.301 618.936 941.877C618.936 948.454 623.527 953.785 629.191 953.785Z" fill="#441D02"/>
<path d="M629.191 949.115C632.633 949.115 635.424 945.875 635.424 941.878C635.424 937.88 632.633 934.64 629.191 934.64C625.748 934.64 622.958 937.88 622.958 941.878C622.958 945.875 625.748 949.115 629.191 949.115Z" fill="#A45B0D"/>
<path d="M482.229 966.497C493.939 966.497 503.432 955.474 503.432 941.878C503.432 928.281 493.939 917.258 482.229 917.258C470.52 917.258 461.027 928.281 461.027 941.878C461.027 955.474 470.52 966.497 482.229 966.497Z" fill="#592702"/>
<path d="M481.501 959.663C475.588 960.491 469.791 957.293 466.609 951.446C463.427 945.599 463.427 938.147 466.609 932.3C469.791 926.454 475.588 923.256 481.501 924.084C473.749 925.17 467.917 932.807 467.917 941.874C467.917 950.94 473.749 958.577 481.501 959.663Z" fill="#A45B0D"/>
<path d="M483.188 962.847C483.776 962.95 484.369 963.001 484.964 963.002C493.479 963.002 500.386 953.538 500.386 941.878C500.386 930.218 493.479 920.743 484.964 920.743C484.37 920.746 483.777 920.795 483.188 920.887C490.851 922.124 496.8 931.053 496.8 941.878C496.8 952.703 490.807 961.621 483.188 962.847Z" fill="#441D02"/>
<path d="M482.228 953.785C487.892 953.785 492.483 948.454 492.483 941.877C492.483 935.301 487.892 929.97 482.228 929.97C476.565 929.97 471.973 935.301 471.973 941.877C471.973 948.454 476.565 953.785 482.228 953.785Z" fill="#441D02"/>
<path d="M482.228 949.115C485.671 949.115 488.461 945.875 488.461 941.878C488.461 937.88 485.671 934.64 482.228 934.64C478.786 934.64 475.996 937.88 475.996 941.878C475.996 945.875 478.786 949.115 482.228 949.115Z" fill="#A45B0D"/>
<path d="M536.688 442.001L549.935 439.981C553.28 439.471 556.347 442.206 556.786 446.09L559.756 472.351C560.234 476.579 557.67 480.457 554.029 481.011L553.986 481.019C546.99 482.085 540.574 476.365 539.656 468.242L536.688 442.001Z" fill="#001066"/>
<path d="M553.286 482.472C559.013 482.472 563.656 477.081 563.656 470.43C563.656 463.78 559.013 458.389 553.286 458.389C547.559 458.389 542.916 463.78 542.916 470.43C542.916 477.081 547.559 482.472 553.286 482.472Z" fill="#F0A284"/>
<path d="M551.181 468.554C551.116 468.775 551.068 469.002 551.04 469.234C550.811 470.923 551.589 472.581 552.936 473.272C554.284 473.964 555.863 473.517 556.784 472.183C556.232 474.033 554.552 475.085 552.916 474.604C551.281 474.124 550.235 472.27 550.507 470.337C550.591 469.683 550.824 469.068 551.181 468.554Z" fill="#D85E66"/>
<path d="M479.033 451.768C478.092 443.36 483.198 435.658 490.439 434.565L540.572 426.994C547.813 425.901 554.446 431.83 555.387 440.237C556.329 448.644 551.223 456.346 543.982 457.44L493.849 465.01C486.608 466.104 479.975 460.175 479.033 451.768Z" fill="#001066"/>
<path d="M514.619 448.306C524.573 448.306 532.643 438.936 532.643 427.377C532.643 415.819 524.573 406.449 514.619 406.449C504.665 406.449 496.595 415.819 496.595 427.377C496.595 438.936 504.665 448.306 514.619 448.306Z" fill="#001066"/>
<path d="M555.426 440.419L555.382 439.945C554.938 435.97 553.15 432.362 550.414 429.919C547.678 427.474 544.217 426.393 540.794 426.913L532.626 428.15C532.894 419.543 528.593 411.623 521.789 408.195C514.984 404.765 507.065 406.527 501.833 412.634C507.178 408.395 514.07 407.807 519.889 411.095C525.709 414.384 529.564 421.043 529.988 428.543C530.024 429.249 530.024 429.959 529.988 430.667L532.439 430.306L538.157 429.439C541.579 428.919 545.039 430.001 547.774 432.444C550.508 434.889 552.294 438.497 552.736 442.471L552.79 442.944C553.297 447.39 552.07 451.865 549.442 455.152C553.745 452.021 556.083 446.266 555.426 440.419Z" fill="#000D44"/>
<path d="M506.478 489.833C506.649 491.804 507.493 493.612 508.821 494.854C508.981 495.008 509.15 495.153 509.319 495.287C510.563 496.249 512.058 496.677 513.545 496.494H513.803C517.133 496.086 519.638 492.782 519.565 488.895C519.565 488.689 519.565 488.483 519.565 488.276C519.529 487.895 519.363 487.545 519.103 487.308C518.855 487.069 518.536 486.954 518.215 486.988L507.641 488.266C507.306 488.29 506.993 488.47 506.774 488.765C506.555 489.06 506.448 489.445 506.478 489.833Z" fill="#962F4A"/>
<path d="M513.571 495.328C513.603 495.713 513.668 496.092 513.766 496.462C517.097 496.056 519.602 492.751 519.529 488.864C517.945 488.533 516.319 489.086 515.141 490.357C513.962 491.629 513.368 493.47 513.535 495.328H513.571Z" fill="#E1617F"/>
<path d="M507.818 488.214C508.004 489.668 510.046 490.596 512.425 490.276C514.805 489.956 516.634 488.585 516.554 487.121L507.818 488.214Z" fill="white"/>
<path d="M509.318 495.287C510.563 496.248 512.058 496.674 513.544 496.493H513.802C515.156 496.326 516.431 495.666 517.442 494.606C516.464 492.991 514.778 492.166 513.1 492.482C511.504 492.585 510.07 493.649 509.318 495.287Z" fill="white"/>
<path d="M521.1 477.626C522.493 477.626 523.622 476.315 523.622 474.698C523.622 473.081 522.493 471.77 521.1 471.77C519.708 471.77 518.579 473.081 518.579 474.698C518.579 476.315 519.708 477.626 521.1 477.626Z" fill="#000D44"/>
<path d="M501.212 480.059C502.605 480.059 503.733 478.749 503.733 477.132C503.733 475.514 502.605 474.204 501.212 474.204C499.819 474.204 498.69 475.514 498.69 477.132C498.69 478.749 499.819 480.059 501.212 480.059Z" fill="#000D44"/>
<path d="M468.485 433.666C464.417 450.299 472.378 467.697 486.527 473.091C476.301 471.321 467.77 463.099 464.388 451.754C461.007 440.409 463.337 427.822 470.434 419.092C477.531 410.362 488.218 406.937 498.167 410.202C498.522 410.315 498.868 410.439 499.214 410.572C485.432 408.225 472.286 418.105 468.485 433.666Z" fill="#2A43A8"/>
<path d="M361.441 938.733L327.986 911.567C332.066 904.341 339.209 900.265 346.628 900.926C354.048 901.589 360.571 906.885 363.652 914.75C366.733 922.615 365.886 931.804 361.441 938.733Z" fill="#F3F9FF"/>
<path d="M321.664 913.156L325.473 907.393C327.122 904.896 330.159 904.318 332.408 906.073L376.997 940.837C378.464 941.984 379.458 943.783 379.744 945.809C380.03 947.835 379.582 949.909 378.507 951.538L371.465 962.26L321.664 913.156Z" fill="#313D8B"/>
<path d="M373.562 959.034L370.898 963.044C370.297 963.959 369.405 964.559 368.422 964.709C367.439 964.86 366.445 964.55 365.66 963.848L319.179 922.506C316.078 919.74 315.486 914.583 317.856 910.97C320.243 907.36 324.697 906.677 327.809 909.445L340.692 920.908C343.356 923.28 343.861 927.71 341.82 930.805L373.562 959.034Z" fill="#000B42"/>
<path d="M495.174 474.699C510.503 474.699 522.929 460.27 522.929 442.471C522.929 424.672 510.503 410.243 495.174 410.243C479.846 410.243 467.419 424.672 467.419 442.471C467.419 460.27 479.846 474.699 495.174 474.699Z" fill="#001066"/>
<path d="M654.692 598.398C655.028 595.059 657.631 592.667 660.508 593.057C663.383 593.447 665.443 596.47 665.107 599.809L650.373 746.325C650.038 749.664 647.434 752.055 644.557 751.665C641.682 751.275 639.622 748.252 639.959 744.912L654.692 598.398Z" fill="#ED974A"/>
<path d="M495.174 458.864C502.971 458.864 509.292 451.525 509.292 442.471C509.292 433.418 502.971 426.079 495.174 426.079C487.378 426.079 481.057 433.418 481.057 442.471C481.057 451.525 487.378 458.864 495.174 458.864Z" fill="#2A43A8"/>
<path d="M305.323 320.24H260.769C259.418 320.24 258.323 321.512 258.323 323.081V341.545C258.323 343.114 259.418 344.385 260.769 344.385H305.323C306.674 344.385 307.769 343.114 307.769 341.545V323.081C307.769 321.512 306.674 320.24 305.323 320.24Z" fill="#F2E1D3"/>
<path d="M271.415 353.592H226.861C225.51 353.592 224.415 354.863 224.415 356.432V374.896C224.415 376.465 225.51 377.737 226.861 377.737H271.415C272.766 377.737 273.861 376.465 273.861 374.896V356.432C273.861 354.863 272.766 353.592 271.415 353.592Z" fill="#F9EEE4"/>
<path d="M209.628 353.592H165.074C163.723 353.592 162.628 354.863 162.628 356.432V374.896C162.628 376.465 163.723 377.737 165.074 377.737H209.628C210.979 377.737 212.074 376.465 212.074 374.896V356.432C212.074 354.863 210.979 353.592 209.628 353.592Z" fill="#F9EEE4"/>
<path d="M337.775 353.592H293.221C291.87 353.592 290.775 354.863 290.775 356.432V374.896C290.775 376.465 291.87 377.737 293.221 377.737H337.775C339.126 377.737 340.221 376.465 340.221 374.896V356.432C340.221 354.863 339.126 353.592 337.775 353.592Z" fill="#F9E7D9"/>
<path d="M243.047 387.541H198.494C197.143 387.541 196.048 388.813 196.048 390.381V408.846C196.048 410.414 197.143 411.686 198.494 411.686H243.047C244.398 411.686 245.494 410.414 245.494 408.846V390.381C245.494 388.813 244.398 387.541 243.047 387.541Z" fill="#F9E7D9"/>
<path d="M789.513 849.156C795.144 865.023 788.633 883.186 774.969 889.726L761.473 896.185C755.841 880.319 762.353 862.155 776.017 855.614L789.513 849.156Z" fill="#E5CDBA"/>
<path d="M755.094 818.862C768.749 825.397 775.262 843.541 769.648 859.403L764.086 875.073C750.422 868.534 743.91 850.37 749.542 834.503L755.094 818.862Z" fill="#D8B59E"/>
<path d="M761.529 896.174L748.034 889.715C734.37 883.175 727.858 865.011 733.49 849.145L746.985 855.604C760.65 862.143 767.162 880.307 761.529 896.174Z" fill="#E5CDBA"/>
<path d="M808.303 910.867C807.312 940.757 786.155 964.396 760.393 964.396C734.632 964.396 713.475 940.757 712.483 910.867C712.482 908.724 712.588 906.582 712.803 904.454C713.047 902.001 713.43 899.57 713.948 897.175H806.838C807.356 899.57 807.739 902.001 807.983 904.454C808.198 906.582 808.305 908.724 808.303 910.867Z" fill="#E5CDBA"/>
<path d="M810.14 882.619H712.864C709.402 882.619 706.596 885.877 706.596 889.897C706.596 893.917 709.402 897.176 712.864 897.176H810.14C813.602 897.176 816.408 893.917 816.408 889.897C816.408 885.877 813.602 882.619 810.14 882.619Z" fill="#D8B59E"/>
<path d="M807.983 904.455H712.803C713.047 902.002 713.43 899.571 713.948 897.176H806.838C807.356 899.571 807.739 902.002 807.983 904.455Z" fill="#D8B59E"/>
</svg>
