<svg width="411" height="315" viewBox="0 0 411 315" fill="none" xmlns="http://www.w3.org/2000/svg">
<rect width="411" height="315" fill="#334AC0"/>
<path d="M354.175 197.035V200.249V200.937V201.453C354.175 201.678 354.175 201.9 354.15 202.126C354.15 202.434 354.119 202.743 354.097 203.052C354.076 203.361 354.051 203.669 354.023 203.978C353.995 204.287 353.964 204.595 353.93 204.904C353.895 205.213 353.858 205.497 353.818 205.79C353.771 206.129 353.721 206.469 353.666 206.809C353.622 207.08 353.575 207.352 353.526 207.623C353.467 207.951 353.401 208.278 353.333 208.602V208.652C353.277 208.92 353.218 209.189 353.153 209.457C353.134 209.541 353.116 209.627 353.094 209.707C353.032 209.976 352.963 210.241 352.895 210.51V210.532C352.811 210.84 352.724 211.167 352.634 211.482C352.581 211.665 352.528 211.847 352.473 212.029C352.417 212.211 352.364 212.39 352.305 212.572C352.246 212.754 352.196 212.918 352.137 213.091C352.004 213.501 351.861 213.905 351.712 214.307C351.465 214.974 351.203 215.631 350.925 216.28C350.851 216.453 350.776 216.625 350.699 216.795C350.531 217.172 350.36 217.548 350.18 217.919C350.115 218.051 350.05 218.187 349.981 218.32C349.733 218.822 349.474 219.319 349.204 219.811C349.049 220.092 348.894 220.37 348.732 220.645C346.616 224.289 343.948 227.588 340.823 230.427C340.68 230.56 340.534 230.69 340.388 230.819L340.345 230.856L339.81 231.279C337.487 233.263 334.948 234.981 332.239 236.401C331.5 236.79 330.745 237.157 329.981 237.5C328.466 238.183 326.91 238.772 325.321 239.262C324.945 239.38 324.566 239.491 324.187 239.596L323.407 239.805C323.146 239.873 322.882 239.938 322.621 240C322.432 240.046 322.245 240.09 322.056 240.13L321.615 240.225C321.422 240.269 321.226 240.309 321.031 240.346L320.611 240.423L320.139 240.509H320.086L319.521 240.602C319.21 240.651 318.884 240.698 318.564 240.741L318.157 240.794L317.66 240.852L317.07 240.914L316.228 240.985L315.628 241.025L315.007 241.062H314.935L314.339 241.084C314.125 241.084 313.907 241.084 313.69 241.099H313.038H296.349C291.663 241.101 287.865 244.876 287.865 249.533V281.014H145.989V249.554C145.993 246.083 143.851 242.965 140.596 241.704C140.478 241.658 140.357 241.612 140.233 241.571C140.109 241.531 140.04 241.506 139.941 241.479C139.841 241.451 139.823 241.442 139.764 241.429C139.708 241.411 139.651 241.396 139.593 241.383C139.513 241.36 139.432 241.342 139.35 241.327C139.044 241.256 138.732 241.203 138.418 241.17L138.21 241.151C138.102 241.151 137.993 241.133 137.884 241.13H137.502H109.425C108.981 241.13 108.542 241.13 108.101 241.111C104.726 241.007 101.375 240.504 98.1198 239.614C97.8525 239.543 97.5885 239.466 97.3244 239.389C96.9485 239.281 96.5788 239.167 96.2092 239.046C95.8986 238.95 95.5879 238.849 95.2988 238.738C94.8328 238.573 94.3722 238.402 93.9164 238.225L93.7766 238.17C93.612 238.108 93.4504 238.043 93.289 237.975C93.1273 237.907 92.9007 237.821 92.7111 237.737L92.4315 237.62C92.183 237.515 91.9376 237.404 91.6923 237.289C91.3816 237.145 91.0428 236.981 90.7229 236.839C90.403 236.697 90.1295 236.549 89.8343 236.394C89.6603 236.305 89.4866 236.215 89.3157 236.123L88.9087 235.903L88.5172 235.694C88.2313 235.533 87.9488 235.385 87.6661 235.206C87.3833 235.027 87.1037 234.872 86.8273 234.7L86.7899 234.678L86.0598 234.212L85.8081 234.048L85.1868 233.632C84.9167 233.446 84.6495 233.261 84.3854 233.07H84.3667C84.1524 232.915 83.9413 232.761 83.7454 232.6C83.1802 232.181 82.627 231.742 82.0866 231.295L81.9249 231.162C81.807 231.063 81.689 230.964 81.574 230.853L81.0614 230.421C80.4214 229.862 79.8001 229.279 79.1974 228.68C76.7639 226.262 74.6319 223.562 72.8475 220.638C72.6207 220.265 72.3971 219.888 72.1827 219.508L71.9031 219.012C71.8006 218.826 71.7012 218.644 71.5925 218.459C71.4837 218.274 71.434 218.15 71.3595 218.011C71.114 217.542 70.881 217.064 70.6574 216.585C70.5673 216.397 70.4803 216.208 70.3933 216.017C70.3063 215.826 70.21 215.606 70.1261 215.4C70.0702 215.282 70.0205 215.162 69.9708 215.042C69.7782 214.591 69.598 214.14 69.4241 213.683L69.2843 213.31C69.132 212.903 68.9736 212.492 68.8524 212.075C68.7841 211.874 68.7189 211.674 68.6536 211.458C68.5604 211.167 68.4703 210.877 68.3864 210.587C68.3678 210.526 68.3492 210.467 68.3336 210.405C68.256 210.149 68.1845 209.89 68.1162 209.63C68.0975 209.565 68.082 209.501 68.0665 209.436C68.0137 209.241 67.9608 209.047 67.9142 208.849C67.8801 208.722 67.849 208.593 67.821 208.463C67.7527 208.176 67.6875 207.889 67.6253 207.599C67.6067 207.525 67.5912 207.451 67.5756 207.377C66.9689 204.499 66.6638 201.566 66.6654 198.625C66.6654 198.409 66.6654 198.193 66.6654 197.974C66.6654 197.817 66.6654 197.66 66.6654 197.501V197.152C66.6654 197.02 66.6654 196.887 66.6809 196.754C66.6809 196.489 66.7058 196.226 66.7244 195.964C66.7431 195.702 66.7524 195.504 66.771 195.279C66.7697 195.27 66.7697 195.262 66.771 195.254C66.771 195.109 66.7928 194.945 66.8083 194.816C66.858 194.235 66.9201 193.659 66.9947 193.087C67.032 192.8 67.0724 192.516 67.119 192.232C67.237 191.435 67.383 190.645 67.5477 189.864C67.6191 189.509 67.6999 189.157 67.7838 188.805C68.0054 187.879 68.257 186.963 68.5387 186.058C68.6982 185.551 68.8659 185.048 69.0419 184.548C69.1724 184.175 69.3122 183.804 69.452 183.434C70.4819 180.761 71.783 178.199 73.3353 175.787C75.9952 171.653 79.3517 168.004 83.2579 165.001C84.173 164.295 85.1218 163.627 86.1033 162.995C89.7916 160.607 93.8308 158.803 98.0764 157.648C99.3003 157.315 100.543 157.036 101.804 156.812C102.742 156.643 103.691 156.506 104.65 156.401C106.219 156.23 107.796 156.144 109.375 156.145H142.37C148.395 156.147 153.323 151.375 153.476 145.39C153.476 145.297 153.476 145.201 153.476 145.106C153.476 145.063 153.476 145.019 153.476 144.979C153.416 139.628 149.5 135.092 144.187 134.218C143.587 134.118 142.979 134.069 142.37 134.07H86.7994H86.147C79.4855 133.915 73.1415 131.21 68.4393 126.519C68.1503 126.232 67.8676 125.939 67.5943 125.639C58.5685 115.795 58.5685 100.742 67.5943 90.898C67.8676 90.5893 68.1503 90.3051 68.4393 90.0182C73.1415 85.3269 79.4855 82.6217 86.147 82.4673C86.354 82.4673 86.5715 82.4673 86.7994 82.4673C90.7987 82.4727 94.72 81.3658 98.1198 79.2723C99.4654 78.441 100.715 77.4657 101.848 76.3642C105.988 72.3423 108.322 66.8313 108.322 61.0775V39.2833C108.322 34.6254 112.122 30.8496 116.809 30.8496H314.575C326.861 30.8484 337.467 39.4008 339.996 51.3478C342.525 63.2948 336.284 75.3681 325.038 80.2847C324.112 80.692 323.162 81.0435 322.193 81.3374C319.724 82.089 317.157 82.4698 314.575 82.4673H293.45C290.922 82.4657 288.434 83.0951 286.215 84.2981C285.824 84.511 285.441 84.7426 285.072 84.9895C280.873 87.7706 278.352 92.4531 278.352 97.467C278.35 101.446 279.941 105.263 282.773 108.076C285.605 110.89 289.446 112.469 293.45 112.467C293.727 112.467 294 112.467 294.274 112.485C297.581 112.615 300.8 113.585 303.625 115.301C303.96 115.501 304.286 115.711 304.606 115.934C305.257 116.382 305.88 116.869 306.47 117.394C310.647 121.081 313.034 126.369 313.028 131.921V145.195C313.023 150.968 316.695 156.111 322.18 158.013C322.363 158.077 322.55 158.136 322.736 158.191C323.476 158.411 324.24 158.651 325.026 158.923C326.607 159.457 328.269 160.096 329.969 160.853C333.835 162.547 337.456 164.749 340.733 167.4C341.724 168.21 342.674 169.069 343.578 169.975C345.356 171.746 346.941 173.698 348.307 175.8C350.069 178.518 351.441 181.466 352.385 184.561C352.539 185.055 352.682 185.558 352.814 186.07C353.047 186.959 353.255 187.876 353.436 188.818C353.485 189.089 353.535 189.364 353.579 189.642C353.622 189.919 353.669 190.194 353.709 190.475C353.75 190.756 353.787 191.04 353.821 191.324C353.848 191.53 353.873 191.749 353.895 191.982C353.895 192.05 353.911 192.121 353.917 192.188C353.945 192.445 353.97 192.704 353.992 192.963C353.992 193.093 354.014 193.226 354.023 193.359C354.045 193.642 354.066 193.93 354.082 194.22C354.097 194.51 354.116 194.776 354.125 195.056C354.135 195.337 354.147 195.711 354.153 196.044V196.353C354.172 196.575 354.175 196.803 354.175 197.035Z" fill="#FFFAF4"/>
<path d="M320.532 172.524H304.943C304.47 172.524 304.087 172.905 304.087 173.375V178.904C304.087 179.373 304.47 179.754 304.943 179.754H320.532C321.004 179.754 321.388 179.373 321.388 178.904V173.375C321.388 172.905 321.004 172.524 320.532 172.524Z" fill="#F2E1D3"/>
<path d="M308.668 182.511H293.079C292.607 182.511 292.223 182.892 292.223 183.362V188.89C292.223 189.36 292.607 189.741 293.079 189.741H308.668C309.141 189.741 309.524 189.36 309.524 188.89V183.362C309.524 182.892 309.141 182.511 308.668 182.511Z" fill="#F9EEE4"/>
<path d="M331.887 182.511H316.298C315.825 182.511 315.442 182.892 315.442 183.362V188.89C315.442 189.36 315.825 189.741 316.298 189.741H331.887C332.359 189.741 332.743 189.36 332.743 188.89V183.362C332.743 182.892 332.359 182.511 331.887 182.511Z" fill="#F9E7D9"/>
<path d="M263.284 66.9429H278.873C279.345 66.9429 279.729 66.5621 279.729 66.0924V60.5636C279.729 60.0939 279.345 59.7131 278.873 59.7131H263.284C262.811 59.7131 262.428 60.0939 262.428 60.5636V66.0924C262.428 66.5621 262.811 66.9429 263.284 66.9429Z" fill="#F2E1D3"/>
<path d="M275.148 56.9565H290.737C291.209 56.9565 291.593 56.5758 291.593 56.106V50.5773C291.593 50.1076 291.209 49.7268 290.737 49.7268H275.148C274.675 49.7268 274.292 50.1076 274.292 50.5773V56.106C274.292 56.5758 274.675 56.9565 275.148 56.9565Z" fill="#F9EEE4"/>
<path d="M251.923 56.9565H267.512C267.984 56.9565 268.368 56.5758 268.368 56.106V50.5773C268.368 50.1076 267.984 49.7268 267.512 49.7268H251.923C251.45 49.7268 251.067 50.1076 251.067 50.5773V56.106C251.067 56.5758 251.45 56.9565 251.923 56.9565Z" fill="#F9E7D9"/>
<path d="M105.975 213.375H90.3857C89.913 213.375 89.5298 213.756 89.5298 214.226V219.754C89.5298 220.224 89.913 220.605 90.3857 220.605H105.975C106.447 220.605 106.83 220.224 106.83 219.754V214.226C106.83 213.756 106.447 213.375 105.975 213.375Z" fill="#F9EEE4"/>
<path d="M150.812 213.375H135.223C134.751 213.375 134.367 213.756 134.367 214.226V219.754C134.367 220.224 134.751 220.605 135.223 220.605H150.812C151.285 220.605 151.668 220.224 151.668 219.754V214.226C151.668 213.756 151.285 213.375 150.812 213.375Z" fill="#F9E7D9"/>
<path d="M117.668 223.537H102.079C101.606 223.537 101.223 223.918 101.223 224.388V229.916C101.223 230.386 101.606 230.767 102.079 230.767H117.668C118.141 230.767 118.524 230.386 118.524 229.916V224.388C118.524 223.918 118.141 223.537 117.668 223.537Z" fill="#F9E7D9"/>
<path d="M180.937 168.255H233.265C236.129 168.255 238.451 165.948 238.451 163.101L238.451 38.5867C238.451 35.7405 236.129 33.4333 233.265 33.4333H180.937C178.073 33.4333 175.751 35.7405 175.751 38.5867V163.101C175.751 165.948 178.073 168.255 180.937 168.255Z" fill="#E5CDBA"/>
<path d="M187.106 161.105H227.099C229.963 161.105 232.285 158.798 232.285 155.952L232.285 45.7361C232.285 42.89 229.963 40.5827 227.099 40.5827H187.106C184.242 40.5827 181.92 42.89 181.92 45.7361V155.952C181.92 158.798 184.242 161.105 187.106 161.105Z" fill="#FFFAF4"/>
<path d="M181.92 58.3364V156.055C181.919 157.394 182.454 158.678 183.406 159.625C184.358 160.572 185.649 161.105 186.997 161.105H217.131V111.899C217.131 110.876 216.296 110.047 215.267 110.047H205.574C204.544 110.047 203.71 109.217 203.71 108.194V60.1915C203.71 59.1687 202.875 58.3393 201.846 58.3393L181.92 58.3364Z" fill="#F9EEE4"/>
<path d="M212.803 118.978H210.467V116.656H212.803V118.978Z" fill="#FFFAF4"/>
<path d="M212.803 129.362H210.467V127.041H212.803V129.362Z" fill="#FFFAF4"/>
<path d="M212.803 139.747H210.467V137.425H212.803V139.747Z" fill="#FFFAF4"/>
<path d="M212.803 150.131H210.467V147.81H212.803V150.131Z" fill="#FFFAF4"/>
<path d="M212.803 160.513H210.467V158.191H212.803V160.513Z" fill="#FFFAF4"/>
<path d="M204.86 129.134H202.523V126.812H204.86V129.134Z" fill="#FFFAF4"/>
<path d="M199.516 64.3281H197.18V62.0068H199.516V64.3281Z" fill="#FFFAF4"/>
<path d="M199.516 78.8587H197.18V76.5371H199.516V78.8587Z" fill="#FFFAF4"/>
<path d="M199.516 93.3894H197.18V91.0679H199.516V93.3894Z" fill="#FFFAF4"/>
<path d="M199.516 107.916H197.18V105.595H199.516V107.916Z" fill="#FFFAF4"/>
<path d="M199.516 122.444H197.18V120.123H199.516V122.444Z" fill="#FFFAF4"/>
<path d="M199.516 136.971H197.18V134.65H199.516V136.971Z" fill="#FFFAF4"/>
<path d="M199.516 151.501H197.18V149.18H199.516V151.501Z" fill="#FFFAF4"/>
<path d="M194.132 72.1811H191.796V69.8599H194.132V72.1811Z" fill="#FFFAF4"/>
<path d="M194.132 86.7119H191.796V84.3906H194.132V86.7119Z" fill="#FFFAF4"/>
<path d="M194.132 101.239H191.796V98.9175H194.132V101.239Z" fill="#FFFAF4"/>
<path d="M194.132 115.77H191.796V113.449H194.132V115.77Z" fill="#FFFAF4"/>
<path d="M194.132 130.294H191.796V127.973H194.132V130.294Z" fill="#FFFAF4"/>
<path d="M194.132 144.825H191.796V142.503H194.132V144.825Z" fill="#FFFAF4"/>
<path d="M194.132 159.355H191.796V157.034H194.132V159.355Z" fill="#FFFAF4"/>
<path d="M187.512 64.1956H185.176V61.874H187.512V64.1956Z" fill="#FFFAF4"/>
<path d="M187.512 78.7259H185.176V76.4043H187.512V78.7259Z" fill="#FFFAF4"/>
<path d="M187.512 93.2534H185.176V90.9321H187.512V93.2534Z" fill="#FFFAF4"/>
<path d="M187.512 107.781H185.176V105.459H187.512V107.781Z" fill="#FFFAF4"/>
<path d="M187.512 122.308H185.176V119.987H187.512V122.308Z" fill="#FFFAF4"/>
<path d="M187.512 136.838H185.176V134.517H187.512V136.838Z" fill="#FFFAF4"/>
<path d="M187.512 151.37H185.176V149.048H187.512V151.37Z" fill="#FFFAF4"/>
<path d="M207.103 144.649H204.766V142.328H207.103V144.649Z" fill="#FFFAF4"/>
<path d="M194.477 163.791H192.964V37.894H194.477V163.791Z" fill="#E5CDBA"/>
<path d="M222.496 163.791H220.983V37.894H222.496V163.791Z" fill="#E5CDBA"/>
<path d="M238.199 48.0503V49.5538H176.739V48.0503H238.199Z" fill="#E5CDBA"/>
<path d="M238.199 100.094V101.598H176.739V100.094H238.199Z" fill="#E5CDBA"/>
<path d="M236.109 89.5458H178.096V82.7358H236.109V89.5458Z" fill="#E5CDBA"/>
<path d="M77.8446 286.45H95.3813C96.892 286.45 98.1167 285.233 98.1167 283.732C98.1167 282.231 96.892 281.014 95.3813 281.014H77.8446C76.3339 281.014 75.1092 282.231 75.1092 283.732C75.1092 285.233 76.3339 286.45 77.8446 286.45Z" fill="#A66633"/>
<path d="M103.079 286.45L349.225 286.45C350.735 286.45 351.96 285.233 351.96 283.732C351.96 282.231 350.735 281.014 349.225 281.014L103.079 281.014C101.569 281.014 100.344 282.231 100.344 283.732C100.344 285.233 101.569 286.45 103.079 286.45Z" fill="#A66633"/>
<path d="M231.632 255.728L207.09 210.256C204.493 205.462 198.483 203.659 193.65 206.225C188.826 208.805 187.011 214.777 189.593 219.579L214.136 265.051L231.632 255.728Z" fill="#000B42"/>
<path d="M214.722 262.66L227.503 255.851L230.863 262.078L218.083 268.887L214.722 262.66Z" fill="#000B42"/>
<path d="M198.892 225.559H225.298C232.847 225.559 238.967 219.478 238.967 211.976V208.661C238.967 207.621 238.551 206.624 237.811 205.889C237.071 205.154 236.068 204.74 235.021 204.74H198.892C193.106 204.74 188.416 209.401 188.416 215.15C188.416 220.899 193.106 225.559 198.892 225.559Z" fill="#000B42"/>
<path d="M226.14 266.236L214.179 273.997C212.159 270.721 213.127 266.443 216.365 264.342C219.602 262.241 223.934 263.081 226.14 266.236Z" fill="#000B42"/>
<path d="M213.804 276.214L212.685 274.343C212.203 273.532 212.439 272.489 213.222 271.96L228.756 261.464C229.267 261.117 229.901 260.997 230.505 261.13C231.109 261.264 231.631 261.641 231.946 262.171L234.012 265.634L213.804 276.214Z" fill="#000B42"/>
<path d="M233.4 264.597L234.844 267.014L216.093 278.057C214.914 278.746 213.397 278.36 212.697 277.192C212.003 276.022 212.391 274.515 213.564 273.818L218.451 270.941C219.462 270.348 220.765 270.68 221.365 271.682L233.4 264.597Z" fill="#000B42"/>
<path d="M202.247 189.641C198.32 189.185 195.508 185.652 195.966 181.75C196.425 177.848 199.981 175.054 203.908 175.509L228.932 178.413C232.86 178.868 235.671 182.401 235.213 186.304C234.754 190.206 231.199 193 227.271 192.545L202.247 189.641Z" fill="#D85E66"/>
<path d="M201.192 190.671C206.233 190.27 210.054 186.659 209.728 182.605C209.402 178.55 205.051 175.589 200.01 175.989C194.969 176.39 191.147 180.001 191.474 184.056C191.8 188.11 196.151 191.072 201.192 190.671Z" fill="#D85E66"/>
<path d="M205.636 175.602C206.661 176.084 207.099 177.3 206.615 178.318C206.382 178.808 205.963 179.185 205.45 179.367C204.937 179.548 204.373 179.52 203.881 179.288L198.096 176.571C197.071 176.089 196.633 174.873 197.118 173.855C197.603 172.836 198.827 172.401 199.852 172.882" fill="#D85E66"/>
<path d="M287.998 157.261L279.766 216.587C278.277 227.32 268.313 234.821 257.512 233.342L247.732 232.002L254.615 182.391C255.688 174.66 259.807 167.669 266.067 162.956C272.327 158.243 280.214 156.194 287.994 157.26L287.998 157.261Z" fill="#A45B0D"/>
<path d="M112.621 192.948H220.793C221.11 192.948 221.368 193.204 221.368 193.519V196.581C221.368 196.885 221.246 197.176 221.03 197.391C220.814 197.606 220.521 197.727 220.215 197.727H113.196C112.89 197.727 112.597 197.606 112.381 197.391C112.165 197.176 112.043 196.885 112.043 196.581V193.519C112.043 193.367 112.104 193.221 112.213 193.114C112.321 193.007 112.468 192.947 112.621 192.948Z" fill="#A45B0D"/>
<path d="M221.368 194.568V196.581C221.368 196.885 221.247 197.177 221.031 197.392C220.814 197.607 220.521 197.727 220.215 197.726H113.196C112.561 197.725 112.046 197.212 112.046 196.581V194.568C112.046 195.2 112.561 195.712 113.196 195.714H220.215C220.521 195.715 220.814 195.594 221.031 195.379C221.247 195.164 221.368 194.873 221.368 194.568Z" fill="#914D08"/>
<path d="M136.98 197.727H196.444V200.786C196.444 201.418 195.928 201.931 195.291 201.931H138.13C137.493 201.931 136.977 201.418 136.977 200.786V197.727H136.98Z" fill="#E3892C"/>
<path d="M196.444 199.208V200.789C196.442 201.42 195.926 201.931 195.291 201.931H138.13C137.494 201.931 136.979 201.42 136.977 200.789V199.208C136.977 199.841 137.493 200.354 138.13 200.354H195.291C195.597 200.354 195.89 200.233 196.106 200.018C196.322 199.804 196.444 199.512 196.444 199.208Z" fill="#A45B0D"/>
<path d="M165.064 201.931H168.351V281.011H165.064V201.931Z" fill="#E3892C"/>
<path d="M165.064 201.931H168.351V209.319H165.064V201.931Z" fill="#A45B0D"/>
<path d="M160.485 201.931H172.933V204.796C172.933 205.429 172.417 205.941 171.78 205.941H161.634C160.998 205.941 160.482 205.429 160.482 204.796V201.931H160.485Z" fill="#E3892C"/>
<path d="M172.933 203.438V204.799C172.931 205.431 172.416 205.942 171.78 205.944H161.634C160.999 205.942 160.485 205.43 160.485 204.799V203.438C160.485 204.069 160.999 204.581 161.634 204.583H171.774C172.081 204.583 172.375 204.463 172.592 204.249C172.81 204.034 172.932 203.742 172.933 203.438Z" fill="#A45B0D"/>
<path d="M222.418 140.219C225.901 140.219 228.724 137.414 228.724 133.953C228.724 130.492 225.901 127.686 222.418 127.686C218.935 127.686 216.112 130.492 216.112 133.953C216.112 137.414 218.935 140.219 222.418 140.219Z" fill="#B35006"/>
<path d="M222.859 140.212C222.713 140.212 222.567 140.228 222.418 140.228C220.132 140.278 217.997 139.095 216.84 137.136C215.682 135.177 215.682 132.749 216.84 130.79C217.997 128.83 220.132 127.647 222.418 127.698C222.567 127.698 222.728 127.698 222.859 127.713C219.548 127.933 216.975 130.665 216.975 133.963C216.975 137.26 219.548 139.993 222.859 140.212Z" fill="#001066"/>
<path d="M229.603 133.952C229.602 137.41 226.78 140.213 223.3 140.213C223.151 140.213 222.989 140.213 222.859 140.197C219.548 139.978 216.975 137.245 216.975 133.948C216.975 130.65 219.548 127.918 222.859 127.698C223.005 127.698 223.151 127.683 223.3 127.683C224.973 127.683 226.576 128.344 227.758 129.52C228.94 130.696 229.604 132.29 229.603 133.952Z" fill="#000D44"/>
<path d="M247.234 155.836L231.353 161.266L227.556 150.301L225.553 144.516L241.434 139.086L242.925 143.392L247.234 155.836Z" fill="#F0A284"/>
<path d="M228.017 153.944C227.752 153.179 228.162 152.345 228.932 152.082L243.455 147.116C244.225 146.852 245.063 147.259 245.328 148.024L247.47 154.21C247.735 154.974 247.326 155.808 246.556 156.071L232.033 161.037C231.263 161.301 230.424 160.894 230.16 160.129L228.017 153.944Z" fill="white"/>
<path d="M229.188 176.758L261.046 176.797L261.003 212.109L229.145 212.07L229.188 176.758Z" fill="white"/>
<path d="M261.365 173.301C261.38 161.531 252.025 151.977 240.472 151.963C228.918 151.949 219.54 161.48 219.526 173.25C219.511 185.021 228.866 194.574 240.419 194.588C251.973 194.602 261.351 185.072 261.365 173.301Z" fill="white"/>
<path d="M241.514 194.544C241.15 194.563 240.781 194.572 240.414 194.572C228.861 194.572 219.507 185.002 219.519 173.231C219.532 161.461 228.91 151.931 240.464 151.931C240.815 151.931 241.166 151.931 241.511 151.959C230.47 152.53 221.685 161.837 221.672 173.219C221.66 184.601 230.448 193.985 241.514 194.544Z" fill="#F3F9FF"/>
<path d="M262.741 208.661V211.973C262.744 219.153 257.122 225.094 249.911 225.534H249.762C249.532 225.534 249.302 225.55 249.069 225.55H222.663C216.878 225.55 212.188 220.889 212.188 215.14C212.188 209.391 216.878 204.731 222.663 204.731H258.793C259.841 204.731 260.847 205.145 261.587 205.882C262.328 206.619 262.743 207.619 262.741 208.661Z" fill="#313D8B"/>
<path d="M229.557 220.836L229.246 221.219L225.627 225.559L207.137 247.745L188.677 269.888L173.383 257.303L181.355 247.733L207.314 216.601L214.272 208.266C216.157 206 218.963 204.69 221.921 204.694C222.283 204.694 222.645 204.713 223.005 204.752C226.628 205.154 229.737 207.497 231.105 210.854C232.472 214.211 231.878 218.043 229.557 220.836Z" fill="#313D8B"/>
<path d="M262.742 211.473V211.973C262.744 219.153 257.123 225.094 249.911 225.534H249.762C249.533 225.534 249.302 225.55 249.07 225.55H222.663C219.949 225.555 217.338 224.51 215.385 222.636L221.762 214.986C223.647 212.72 226.453 211.41 229.411 211.415C229.773 211.414 230.135 211.433 230.495 211.473H262.742Z" fill="#2A397F"/>
<path d="M229.557 220.836L229.246 221.219L225.627 225.559L222.648 229.137L207.137 247.745L188.677 269.889L181.159 263.715L188.86 254.475L214.819 223.334L215.4 222.636L221.778 214.986C223.663 212.72 226.468 211.41 229.427 211.415C229.789 211.414 230.151 211.433 230.511 211.473H231.365C231.381 211.519 231.396 211.566 231.408 211.612C232.405 214.8 231.708 218.272 229.557 220.836Z" fill="#2A397F"/>
<path d="M262.742 211.473V211.973C262.744 219.152 257.123 225.094 249.911 225.534H249.762C249.532 225.534 249.302 225.549 249.069 225.549H225.621L222.642 229.127C221.57 228.032 220.754 226.716 220.253 225.272C220.153 224.994 220.069 224.71 219.995 224.42C219.204 221.306 219.902 218.004 221.888 215.47C223.874 212.936 226.925 211.454 230.156 211.454L262.742 211.473Z" fill="#2A397F"/>
<path d="M238.352 225.559H225.615L222.635 229.137L207.124 247.745L188.665 269.889L181.147 263.715L188.861 254.475L214.819 223.334L215.4 222.636L221.778 214.986C223.663 212.72 226.468 211.41 229.426 211.415C229.789 211.414 230.15 211.433 230.511 211.473C230.812 211.504 231.112 211.551 231.408 211.612C234.405 212.225 236.951 214.176 238.31 216.9C239.669 219.623 239.69 222.818 238.367 225.559H238.352Z" fill="#2A397F"/>
<path d="M186.676 268.219L180.805 275.261L169.523 265.973L175.394 258.932L186.676 268.219Z" fill="#F0A284"/>
<path d="M186.672 268.217L184.744 270.531L173.462 261.243L175.39 258.93L186.672 268.217Z" fill="#D85E66"/>
<path d="M247.28 177.062C253.293 177.062 258.168 172.218 258.168 166.242C258.168 160.267 253.293 155.422 247.28 155.422C241.266 155.422 236.391 160.267 236.391 166.242C236.391 172.218 241.266 177.062 247.28 177.062Z" fill="#313D8B"/>
<path d="M239.918 163.14C242.001 159.168 246.93 157.627 250.927 159.697C254.924 161.767 256.475 166.665 254.392 170.637L242.982 192.389C240.899 196.36 235.97 197.902 231.973 195.832C227.976 193.761 226.425 188.864 228.508 184.892L239.918 163.14Z" fill="#F3F9FF"/>
<path d="M172.01 192.948H168.425L157.409 158.655H159.466C160.377 158.654 161.184 159.24 161.46 160.103L172.01 192.948Z" fill="#F3F9FF"/>
<path d="M171.491 188.849H173.272C173.559 188.849 173.835 188.962 174.038 189.164C174.242 189.366 174.356 189.64 174.356 189.926V190.809H170.407V189.914C170.414 189.323 170.898 188.849 171.491 188.849Z" fill="#F3F9FF"/>
<path d="M175.443 188.849H177.223C177.814 188.854 178.291 189.327 178.298 189.914V190.797H174.359V189.914C174.366 189.323 174.849 188.849 175.443 188.849Z" fill="#F3F9FF"/>
<path d="M179.391 188.849H181.171C181.77 188.849 182.256 189.331 182.256 189.926V190.809H178.298V189.914C178.305 189.32 178.794 188.844 179.391 188.849Z" fill="#F3F9FF"/>
<path d="M183.34 188.849H185.132C185.731 188.849 186.217 189.331 186.217 189.926V190.809H182.256V189.914C182.263 189.323 182.746 188.849 183.34 188.849Z" fill="#F3F9FF"/>
<path d="M187.288 188.849H189.069C189.667 188.849 190.153 189.331 190.153 189.926V190.809H186.204V189.914C186.211 189.323 186.695 188.849 187.288 188.849Z" fill="#F3F9FF"/>
<path d="M191.237 188.849H193.017C193.616 188.849 194.101 189.331 194.101 189.926V190.809H190.153V189.914C190.16 189.323 190.643 188.849 191.237 188.849Z" fill="#F3F9FF"/>
<path d="M195.188 188.849H196.969C197.567 188.849 198.053 189.331 198.053 189.926V190.809H194.104V189.914C194.111 189.323 194.595 188.849 195.188 188.849Z" fill="#F3F9FF"/>
<path d="M199.137 188.849H200.917C201.511 188.849 201.995 189.323 202.001 189.914V190.797H198.053V189.914C198.06 189.323 198.543 188.849 199.137 188.849Z" fill="#F3F9FF"/>
<path d="M170.891 192.948H167.307L156.474 158.682C156.309 158.166 156.403 157.603 156.725 157.166C157.047 156.729 157.56 156.472 158.105 156.472C158.852 156.472 159.513 156.955 159.736 157.664L170.891 192.948Z" fill="#2E2418"/>
<path d="M167.543 189.62H204.17C205.094 189.62 205.844 190.365 205.844 191.284C205.844 192.203 205.094 192.948 204.17 192.948H167.543" fill="#2E2418"/>
<path d="M235.702 197.418C240.801 197.418 244.934 193.31 244.934 188.243C244.934 183.176 240.801 179.069 235.702 179.069C230.602 179.069 226.469 183.176 226.469 188.243C226.469 193.31 230.602 197.418 235.702 197.418Z" fill="#313D8B"/>
<path d="M237.352 182.557C241.228 183.331 243.74 187.08 242.962 190.932C242.184 194.784 238.411 197.28 234.534 196.507L209.832 191.58C205.956 190.807 203.444 187.057 204.222 183.205C205 179.353 208.773 176.857 212.65 177.63L237.352 182.557Z" fill="#F0A284"/>
<path d="M208.6 191.621C213.641 191.621 217.727 188.334 217.727 184.28C217.727 180.226 213.641 176.939 208.6 176.939C203.559 176.939 199.473 180.226 199.473 184.28C199.473 188.334 203.559 191.621 208.6 191.621Z" fill="#F0A284"/>
<path d="M206.648 185.434C207.781 185.465 208.676 186.403 208.645 187.529C208.614 188.656 207.671 189.544 206.537 189.514L200.142 189.342C199.009 189.311 198.115 188.373 198.145 187.247C198.176 186.121 199.12 185.232 200.254 185.262L206.648 185.434Z" fill="#F0A284"/>
<path d="M203.21 181.531C204.344 181.561 205.238 182.499 205.207 183.626C205.177 184.753 204.233 185.641 203.099 185.61L196.705 185.439C195.571 185.408 194.677 184.47 194.708 183.344C194.739 182.217 195.683 181.329 196.816 181.359L203.21 181.531Z" fill="#F0A284"/>
<path d="M206.651 177.541C207.785 177.572 208.679 178.51 208.649 179.636C208.618 180.763 207.674 181.651 206.54 181.621L200.146 181.449C199.012 181.418 198.118 180.48 198.149 179.354C198.18 178.227 199.123 177.339 200.257 177.369L206.651 177.541Z" fill="#F0A284"/>
<path d="M214.356 177.855C215.338 178.419 215.675 179.666 215.107 180.643C214.541 181.618 213.285 181.953 212.303 181.389L206.763 178.211C205.781 177.648 205.444 176.4 206.011 175.424C206.578 174.448 207.834 174.114 208.817 174.677L214.356 177.855Z" fill="#F0A284"/>
<path d="M230.116 188.296C231.506 188.574 232.407 189.918 232.128 191.3C231.849 192.681 230.495 193.577 229.105 193.299L219.136 191.311C217.746 191.033 216.845 189.689 217.124 188.307C217.403 186.925 218.756 186.03 220.147 186.308L230.116 188.296Z" fill="#FCB798"/>
<path d="M242.915 143.392C241.086 147.052 237.541 149.565 233.462 150.091L230.415 150.486C229.459 150.611 228.488 150.548 227.556 150.301L225.553 144.516L241.434 139.086L242.915 143.392Z" fill="#D85E66"/>
<path d="M224.466 121.745L234.324 120.471C236.091 120.241 237.878 120.719 239.291 121.8C240.704 122.88 241.627 124.474 241.857 126.231L243.044 135.298C243.466 138.524 242.581 141.785 240.584 144.364C238.587 146.941 235.64 148.626 232.393 149.045L229.343 149.439C225.277 149.965 221.552 147.115 221.023 143.075L219.133 128.632C218.921 127.015 219.365 125.382 220.365 124.09C221.366 122.798 222.842 121.954 224.469 121.744L224.466 121.745Z" fill="#F0A284"/>
<path d="M243.149 249.736H243.076C241.561 249.736 240.334 250.956 240.334 252.461V266.009C240.334 267.514 241.561 268.734 243.076 268.734H243.149C244.664 268.734 245.891 267.514 245.891 266.009V252.461C245.891 250.956 244.664 249.736 243.149 249.736Z" fill="#592702"/>
<path d="M245.076 236.342H241.149C238.959 236.342 237.184 238.106 237.184 240.282V255.48C237.184 257.656 238.959 259.42 241.149 259.42H245.076C247.266 259.42 249.042 257.656 249.042 255.48V240.282C249.042 238.106 247.266 236.342 245.076 236.342Z" fill="#A45B0D"/>
<path d="M249.041 252.768V255.546C249.041 257.678 247.303 259.406 245.158 259.408H241.07C238.924 259.408 237.184 257.679 237.184 255.546V252.768C237.184 253.792 237.593 254.774 238.322 255.498C239.051 256.221 240.039 256.628 241.07 256.627H245.158C247.303 256.627 249.041 254.899 249.041 252.768Z" fill="#914D08"/>
<path d="M253.109 231.415H233.119C230.923 231.415 229.144 233.184 229.144 235.365V237.316C229.144 239.497 230.923 241.266 233.119 241.266H253.109C255.305 241.266 257.084 239.497 257.084 237.316V235.365C257.084 233.184 255.305 231.415 253.109 231.415Z" fill="#592702"/>
<path d="M257.085 235.292V237.395C257.085 239.533 255.34 241.266 253.189 241.266H233.039C232.006 241.267 231.014 240.859 230.284 240.133C229.553 239.407 229.143 238.422 229.144 237.395V235.292C229.143 236.32 229.553 237.305 230.283 238.032C231.014 238.758 232.006 239.167 233.039 239.167H253.189C255.341 239.165 257.085 237.431 257.085 235.292Z" fill="#441D02"/>
<path d="M280.952 167.179L273.692 219.503C273.186 223.142 269.806 225.686 266.143 225.184L264.096 224.903C260.432 224.401 257.871 221.042 258.376 217.401L263.807 178.258C264.818 170.975 271.578 165.886 278.907 166.889L280.953 167.17L280.952 167.179Z" fill="#CC7212"/>
<path d="M265.638 214.387H231.411C227.401 214.387 224.151 217.617 224.151 221.601V222.541C224.151 226.525 227.401 229.754 231.411 229.754H265.638C269.647 229.754 272.897 226.525 272.897 222.541V221.601C272.897 217.617 269.647 214.387 265.638 214.387Z" fill="#CC7212"/>
<path d="M232.8 219.675H271.266C275.195 219.675 278.38 222.84 278.38 226.745V227.979C278.38 231.883 275.195 235.049 271.266 235.049H220.007C219.271 235.049 218.675 234.456 218.675 233.724C218.673 230 220.16 226.427 222.809 223.793C225.458 221.158 229.052 219.677 232.8 219.675Z" fill="#E3892C"/>
<path d="M269.147 270.077H248.606C245.573 270.077 243.114 267.633 243.114 264.619V264.554H263.59C266.659 264.554 269.147 267.027 269.147 270.077Z" fill="#A45B0D"/>
<path d="M287.995 157.259L278.124 228.402C277.54 232.605 273.638 235.543 269.408 234.964C265.177 234.384 262.221 230.507 262.804 226.303L270.563 170.383C271.729 161.975 279.534 156.099 287.995 157.259Z" fill="#E3892C"/>
<path d="M243.114 264.551V264.616C243.114 267.63 240.655 270.074 237.621 270.074H217.081C217.081 267.024 219.569 264.551 222.638 264.551H243.114Z" fill="#A45B0D"/>
<path d="M269.148 270.077H248.607C245.574 270.075 243.116 267.633 243.115 264.619V264.554H243.344C244.046 266.86 246.183 268.437 248.607 268.438H268.899C269.064 268.969 269.148 269.521 269.148 270.077Z" fill="#914D08"/>
<path d="M243.114 264.554V264.619C243.112 267.628 240.662 270.068 237.634 270.077H217.081C217.08 269.521 217.164 268.969 217.329 268.438H237.634C240.057 268.438 242.195 266.86 242.893 264.554H243.114Z" fill="#914D08"/>
<path d="M269.147 281.014C273.244 281.014 276.566 277.714 276.566 273.642C276.566 269.571 273.244 266.271 269.147 266.271C265.05 266.271 261.729 269.571 261.729 273.642C261.729 277.714 265.05 281.014 269.147 281.014Z" fill="#592702"/>
<path d="M268.892 278.967C266.823 279.215 264.795 278.258 263.682 276.507C262.569 274.756 262.569 272.525 263.682 270.774C264.795 269.024 266.823 268.066 268.892 268.314C266.18 268.639 264.14 270.926 264.14 273.641C264.14 276.355 266.18 278.642 268.892 278.967Z" fill="#A45B0D"/>
<path d="M269.467 279.921C269.673 279.951 269.881 279.967 270.089 279.967C273.068 279.967 275.485 277.133 275.485 273.642C275.485 270.15 273.068 267.313 270.089 267.313C269.881 267.314 269.673 267.329 269.467 267.357C272.148 267.727 274.227 270.4 274.227 273.642C274.227 276.883 272.148 279.553 269.467 279.921Z" fill="#441D02"/>
<path d="M269.147 277.207C271.129 277.207 272.735 275.611 272.735 273.642C272.735 271.673 271.129 270.076 269.147 270.076C267.166 270.076 265.559 271.673 265.559 273.642C265.559 275.611 267.166 277.207 269.147 277.207Z" fill="#441D02"/>
<path d="M269.147 275.809C270.352 275.809 271.328 274.839 271.328 273.642C271.328 272.445 270.352 271.475 269.147 271.475C267.943 271.475 266.966 272.445 266.966 273.642C266.966 274.839 267.943 275.809 269.147 275.809Z" fill="#A45B0D"/>
<path d="M217.727 281.014C221.824 281.014 225.146 277.714 225.146 273.642C225.146 269.571 221.824 266.271 217.727 266.271C213.63 266.271 210.309 269.571 210.309 273.642C210.309 277.714 213.63 281.014 217.727 281.014Z" fill="#592702"/>
<path d="M217.472 278.967C215.403 279.215 213.375 278.258 212.262 276.507C211.148 274.756 211.148 272.525 212.262 270.774C213.375 269.024 215.403 268.066 217.472 268.314C214.76 268.639 212.719 270.926 212.719 273.641C212.719 276.355 214.76 278.642 217.472 278.967Z" fill="#A45B0D"/>
<path d="M218.062 279.921C218.268 279.951 218.476 279.967 218.684 279.967C221.663 279.967 224.08 277.133 224.08 273.642C224.08 270.15 221.663 267.313 218.684 267.313C218.476 267.314 218.269 267.329 218.062 267.357C220.744 267.727 222.825 270.4 222.825 273.642C222.825 276.883 220.728 279.553 218.062 279.921Z" fill="#441D02"/>
<path d="M217.727 277.207C219.708 277.207 221.315 275.611 221.315 273.642C221.315 271.673 219.708 270.076 217.727 270.076C215.745 270.076 214.139 271.673 214.139 273.642C214.139 275.611 215.745 277.207 217.727 277.207Z" fill="#441D02"/>
<path d="M217.727 275.809C218.931 275.809 219.908 274.839 219.908 273.642C219.908 272.445 218.931 271.475 217.727 271.475C216.522 271.475 215.546 272.445 215.546 273.642C215.546 274.839 216.522 275.809 217.727 275.809Z" fill="#A45B0D"/>
<path d="M236.781 123.964L241.416 123.359C242.587 123.206 243.66 124.025 243.814 125.188L244.853 133.052C245.02 134.318 244.123 135.479 242.849 135.645L242.834 135.647C240.386 135.966 238.141 134.253 237.82 131.821L236.781 123.964Z" fill="#001066"/>
<path d="M242.589 136.082C244.593 136.082 246.217 134.468 246.217 132.477C246.217 130.485 244.593 128.871 242.589 128.871C240.585 128.871 238.96 130.485 238.96 132.477C238.96 134.468 240.585 136.082 242.589 136.082Z" fill="#F0A284"/>
<path d="M241.853 131.915C241.83 131.981 241.813 132.049 241.803 132.119C241.723 132.624 241.995 133.121 242.467 133.328C242.938 133.535 243.491 133.401 243.813 133.001C243.62 133.556 243.032 133.871 242.46 133.727C241.888 133.583 241.521 133.028 241.617 132.449C241.646 132.253 241.728 132.069 241.853 131.915Z" fill="#D85E66"/>
<path d="M216.609 126.888C216.279 124.371 218.066 122.065 220.599 121.738L238.141 119.471C240.674 119.143 242.995 120.919 243.324 123.436C243.654 125.953 241.867 128.259 239.334 128.587L221.793 130.854C219.259 131.181 216.938 129.406 216.609 126.888Z" fill="#001066"/>
<path d="M229.06 125.852C232.543 125.852 235.366 123.046 235.366 119.585C235.366 116.124 232.543 113.319 229.06 113.319C225.577 113.319 222.753 116.124 222.753 119.585C222.753 123.046 225.577 125.852 229.06 125.852Z" fill="#001066"/>
<path d="M243.338 123.49L243.322 123.349C243.167 122.158 242.541 121.078 241.584 120.346C240.627 119.614 239.416 119.291 238.218 119.446L235.36 119.817C235.454 117.239 233.949 114.868 231.568 113.842C229.187 112.815 226.417 113.342 224.586 115.171C226.456 113.901 228.868 113.725 230.904 114.71C232.94 115.695 234.289 117.689 234.437 119.934C234.45 120.146 234.45 120.358 234.437 120.57L235.295 120.462L237.295 120.203C238.493 120.047 239.703 120.371 240.66 121.103C241.617 121.835 242.242 122.915 242.397 124.105L242.415 124.247C242.593 125.578 242.164 126.918 241.244 127.902C242.75 126.964 243.568 125.241 243.338 123.49Z" fill="#000D44"/>
<path d="M226.211 138.286C226.271 138.876 226.567 139.418 227.031 139.79C227.087 139.836 227.146 139.879 227.205 139.919C227.641 140.208 228.164 140.335 228.684 140.281H228.774C229.939 140.159 230.816 139.169 230.79 138.005C230.79 137.944 230.79 137.882 230.79 137.82C230.778 137.706 230.72 137.601 230.629 137.53C230.542 137.459 230.43 137.424 230.318 137.434L226.618 137.817C226.501 137.824 226.392 137.878 226.315 137.966C226.238 138.055 226.201 138.17 226.211 138.286Z" fill="#962F4A"/>
<path d="M228.693 139.932C228.704 140.047 228.727 140.161 228.761 140.271C229.927 140.15 230.803 139.16 230.778 137.996C230.224 137.897 229.655 138.063 229.242 138.443C228.83 138.824 228.622 139.376 228.681 139.932H228.693Z" fill="#E1617F"/>
<path d="M226.68 137.802C226.745 138.237 227.46 138.515 228.292 138.419C229.125 138.324 229.765 137.913 229.737 137.475L226.68 137.802Z" fill="white"/>
<path d="M227.205 139.92C227.641 140.208 228.164 140.335 228.684 140.281H228.774C229.248 140.231 229.694 140.033 230.048 139.716C229.706 139.232 229.116 138.985 228.529 139.08C227.97 139.111 227.468 139.429 227.205 139.92Z" fill="white"/>
<path d="M231.328 134.631C231.815 134.631 232.21 134.239 232.21 133.755C232.21 133.27 231.815 132.878 231.328 132.878C230.84 132.878 230.445 133.27 230.445 133.755C230.445 134.239 230.84 134.631 231.328 134.631Z" fill="#000D44"/>
<path d="M224.369 135.36C224.856 135.36 225.251 134.967 225.251 134.483C225.251 133.999 224.856 133.606 224.369 133.606C223.882 133.606 223.487 133.999 223.487 134.483C223.487 134.967 223.882 135.36 224.369 135.36Z" fill="#000D44"/>
<path d="M212.918 121.469C211.495 126.449 214.28 131.658 219.231 133.273C215.653 132.744 212.668 130.282 211.485 126.885C210.302 123.488 211.117 119.719 213.6 117.105C216.083 114.491 219.822 113.465 223.303 114.443C223.428 114.476 223.549 114.514 223.67 114.554C218.848 113.851 214.248 116.809 212.918 121.469Z" fill="#2A43A8"/>
<path d="M175.465 272.701L163.759 264.567C165.186 262.403 167.686 261.182 170.282 261.38C172.878 261.579 175.16 263.164 176.238 265.519C177.316 267.875 177.02 270.626 175.465 272.701Z" fill="#F3F9FF"/>
<path d="M161.547 265.042L162.88 263.316C163.456 262.569 164.519 262.396 165.306 262.921L180.907 273.331C181.421 273.674 181.768 274.213 181.868 274.819C181.968 275.426 181.812 276.047 181.435 276.535L178.972 279.745L161.547 265.042Z" fill="#313D8B"/>
<path d="M179.705 278.779L178.773 279.98C178.563 280.254 178.251 280.433 177.907 280.478C177.563 280.523 177.215 280.431 176.941 280.22L160.678 267.842C159.592 267.013 159.385 265.469 160.214 264.387C161.05 263.306 162.608 263.102 163.697 263.931L168.205 267.363C169.137 268.073 169.313 269.4 168.599 270.327L179.705 278.779Z" fill="#000B42"/>
<path d="M222.256 133.755C227.62 133.755 231.968 129.435 231.968 124.105C231.968 118.776 227.62 114.455 222.256 114.455C216.893 114.455 212.545 118.776 212.545 124.105C212.545 129.435 216.893 133.755 222.256 133.755Z" fill="#001066"/>
<path d="M278.07 170.794C278.188 169.794 279.098 169.078 280.105 169.195C281.111 169.311 281.831 170.217 281.714 171.217L276.559 215.088C276.442 216.087 275.53 216.803 274.524 216.687C273.518 216.57 272.797 215.665 272.915 214.665L278.07 170.794Z" fill="#ED974A"/>
<path d="M222.256 129.013C224.984 129.013 227.196 126.815 227.196 124.105C227.196 121.394 224.984 119.196 222.256 119.196C219.528 119.196 217.317 121.394 217.317 124.105C217.317 126.815 219.528 129.013 222.256 129.013Z" fill="#2A43A8"/>
<path d="M155.829 87.5054H140.24C139.768 87.5054 139.385 87.8861 139.385 88.3559V93.8846C139.385 94.3543 139.768 94.7351 140.24 94.7351H155.829C156.302 94.7351 156.685 94.3543 156.685 93.8846V88.3559C156.685 87.8861 156.302 87.5054 155.829 87.5054Z" fill="#F2E1D3"/>
<path d="M143.965 97.4922H128.377C127.904 97.4922 127.521 97.873 127.521 98.3427V103.871C127.521 104.341 127.904 104.722 128.377 104.722H143.965C144.438 104.722 144.821 104.341 144.821 103.871V98.3427C144.821 97.873 144.438 97.4922 143.965 97.4922Z" fill="#F9EEE4"/>
<path d="M122.347 97.4922H106.758C106.285 97.4922 105.902 97.873 105.902 98.3427V103.871C105.902 104.341 106.285 104.722 106.758 104.722H122.347C122.819 104.722 123.202 104.341 123.202 103.871V98.3427C123.202 97.873 122.819 97.4922 122.347 97.4922Z" fill="#F9EEE4"/>
<path d="M167.184 97.4922H151.595C151.122 97.4922 150.739 97.873 150.739 98.3427V103.871C150.739 104.341 151.122 104.722 151.595 104.722H167.184C167.657 104.722 168.04 104.341 168.04 103.871V98.3427C168.04 97.873 167.657 97.4922 167.184 97.4922Z" fill="#F9E7D9"/>
<path d="M134.04 107.657H118.451C117.978 107.657 117.595 108.038 117.595 108.508V114.036C117.595 114.506 117.978 114.887 118.451 114.887H134.04C134.512 114.887 134.896 114.506 134.896 114.036V108.508C134.896 108.038 134.512 107.657 134.04 107.657Z" fill="#F9E7D9"/>
<path d="M325.242 245.879C327.213 250.63 324.935 256.069 320.154 258.027L315.432 259.961C313.461 255.21 315.739 249.771 320.52 247.813L325.242 245.879Z" fill="#E5CDBA"/>
<path d="M313.2 236.807C317.977 238.764 320.256 244.197 318.292 248.946L316.346 253.638C311.565 251.68 309.287 246.241 311.257 241.491L313.2 236.807Z" fill="#D8B59E"/>
<path d="M315.451 259.957L310.729 258.023C305.948 256.065 303.67 250.626 305.641 245.875L310.362 247.809C315.143 249.767 317.422 255.206 315.451 259.957Z" fill="#E5CDBA"/>
<path d="M331.817 264.357C331.47 273.307 324.067 280.385 315.054 280.385C306.04 280.385 298.637 273.307 298.29 264.357C298.29 263.715 298.327 263.074 298.402 262.436C298.488 261.702 298.622 260.974 298.803 260.257H331.304C331.486 260.974 331.619 261.702 331.705 262.436C331.78 263.074 331.817 263.715 331.817 264.357Z" fill="#E5CDBA"/>
<path d="M332.46 255.898H298.424C297.213 255.898 296.231 256.874 296.231 258.077C296.231 259.281 297.213 260.257 298.424 260.257H332.46C333.671 260.257 334.653 259.281 334.653 258.077C334.653 256.874 333.671 255.898 332.46 255.898Z" fill="#D8B59E"/>
<path d="M331.705 262.436H298.402C298.488 261.702 298.622 260.974 298.803 260.257H331.304C331.485 260.974 331.619 261.702 331.705 262.436Z" fill="#D8B59E"/>
</svg>
